<?xml version="1.0" standalone="no"?>
<!DOCTYPE svg PUBLIC "-//W3C//DTD SVG 20010904//EN"
 "http://www.w3.org/TR/2001/REC-SVG-20010904/DTD/svg10.dtd">
<svg version="1.0" xmlns="http://www.w3.org/2000/svg"
 width="1024.000000pt" height="488.000000pt" viewBox="0 0 1024.000000 488.000000"
 preserveAspectRatio="xMidYMid meet">

<g transform="translate(0.000000,488.000000) scale(0.100000,-0.100000)"
fill="#000000" stroke="none">
<path d="M0 2440 l0 -2440 5120 0 5120 0 0 2440 0 2440 -5120 0 -5120 0 0
-2440z m4331 1522 c66 -13 146 -80 186 -157 10 -18 8 -20 -18 -21 -16 -1 -29
2 -29 5 0 3 -9 12 -21 19 -12 8 -19 10 -16 5 3 -5 1 -15 -4 -23 -8 -13 -12
-12 -24 4 -25 33 -42 28 -38 -11 1 -20 -2 -31 -8 -28 -6 4 -7 -3 -3 -19 5 -21
3 -25 -10 -20 -12 5 -15 2 -9 -12 6 -15 2 -15 -28 6 -19 13 -28 17 -21 10 20
-22 14 -35 -8 -15 -19 17 -19 17 -7 -14 9 -26 9 -34 -2 -40 -7 -5 -11 -17 -8
-27 14 -46 16 -94 6 -94 -7 0 -9 -9 -6 -21 7 -28 -37 -95 -75 -115 -15 -8 -28
-19 -28 -24 0 -6 -6 -10 -12 -10 -7 0 -26 -7 -43 -16 -66 -35 -98 -42 -135
-28 -75 27 -144 7 -271 -81 -28 -19 -55 -35 -60 -35 -20 0 -60 25 -74 47 -9
12 -23 23 -32 23 -15 0 -15 -2 0 -17 19 -22 26 -88 10 -104 -14 -14 -39 2 -48
30 -3 10 -18 24 -33 32 -37 19 -86 52 -90 62 -2 4 -10 7 -19 7 -11 0 -7 -13
16 -54 17 -29 31 -58 31 -64 0 -17 -39 -1 -59 24 -40 51 -54 19 -21 -46 42
-83 10 -121 -71 -85 -46 21 -78 68 -94 139 l-12 51 -45 -1 c-53 0 -108 -21
-108 -41 0 -10 -4 -11 -19 -3 -25 13 -34 13 -25 -1 5 -8 -3 -9 -27 -3 -51 13
-216 9 -291 -8 -38 -8 -68 -11 -68 -6 0 4 -6 8 -14 8 -7 0 -17 8 -20 18 -4 9
-15 33 -25 52 -23 42 -34 108 -26 143 19 74 207 75 317 2 37 -24 39 -25 28 -5
-17 31 -8 34 52 19 29 -7 101 -13 159 -13 91 -1 110 2 128 18 21 19 21 19 21
0 0 -22 36 27 65 89 9 20 22 37 27 37 5 0 6 5 2 12 -4 7 -3 8 5 4 7 -5 27 4
47 19 19 15 38 24 41 21 4 -3 1 -6 -6 -6 -8 0 -11 -6 -7 -16 3 -8 2 -13 -3
-10 -4 3 -13 -20 -20 -51 -9 -48 -9 -59 4 -72 13 -14 17 -13 34 4 10 11 33 47
51 80 38 71 75 123 104 148 27 22 99 62 109 59 4 -1 7 2 7 7 0 5 7 12 16 15
12 5 15 2 10 -10 -7 -19 12 -16 99 17 43 16 55 25 55 42 1 16 13 28 43 42 31
15 41 25 39 39 -5 25 -26 46 -48 46 -11 0 -14 3 -9 9 18 18 143 22 188 6 25
-8 44 -10 47 -5 4 6 19 6 40 0 43 -12 43 -12 34 1 -7 12 0 11 71 -7 19 -5 19
-4 2 9 -30 25 8 28 104 9z m-679 -88 c-4 -47 -9 -53 -56 -64 -31 -7 -38 -5
-47 12 -6 11 -9 21 -7 23 12 10 54 29 61 27 4 -1 13 9 19 23 17 37 34 25 30
-21z m-181 -63 c-14 -16 -28 -25 -30 -19 -4 12 29 48 44 48 7 0 1 -13 -14 -29z
m304 9 c-3 -5 -14 -10 -23 -9 -14 0 -13 2 3 9 27 11 27 11 20 0z m-197 -41
c-4 -12 -99 -52 -106 -45 -2 3 1 14 8 25 8 16 17 20 35 15 13 -3 32 -1 42 5
23 13 25 13 21 0z m-168 -20 c-7 -11 -8 -24 -4 -27 4 -4 9 -1 11 6 8 23 21 12
19 -16 -1 -30 -43 -92 -62 -92 -6 0 -17 6 -23 14 -14 17 -1 56 35 103 28 37
40 43 24 12z m-248 -254 c1 -20 -58 -44 -107 -44 -37 0 -45 3 -30 9 11 5 16 9
10 10 -5 1 17 10 50 20 64 19 76 20 77 5z m698 -421 c17 -26 29 -53 26 -60 -7
-19 -52 -28 -89 -17 -26 7 -33 14 -35 40 -4 38 23 83 48 83 11 0 32 -20 50
-46z m-1158 -96 c-7 -7 -12 -8 -12 -2 0 6 3 14 7 17 3 4 9 5 12 2 2 -3 -1 -11
-7 -17z m1434 -2 c40 -15 214 -172 214 -194 0 -7 4 -12 9 -12 18 0 71 -205 71
-276 0 -16 13 -81 29 -144 15 -63 31 -146 35 -184 3 -38 9 -73 12 -78 3 -5 8
-37 11 -71 3 -34 8 -69 13 -77 4 -8 7 -41 6 -72 -2 -32 1 -58 6 -58 5 0 7 -27
4 -59 -4 -52 -3 -59 11 -54 14 5 15 0 10 -35 -5 -28 -3 -42 6 -45 8 -3 4 -11
-12 -24 l-23 -19 20 -34 c22 -36 21 -53 -3 -44 -8 4 -18 -1 -21 -10 -3 -9 -13
-16 -20 -16 -8 0 -17 -7 -20 -15 -5 -13 -10 -12 -25 7 -15 16 -16 23 -7 29 7
4 16 5 20 3 4 -3 8 0 8 6 0 7 -12 10 -28 9 -16 -2 -46 7 -72 23 -44 26 -120
101 -120 119 0 5 -7 9 -15 9 -10 0 -15 10 -15 27 0 33 -44 75 -68 66 -12 -5
-14 -2 -9 11 6 16 3 18 -22 14 -19 -3 -32 0 -35 9 -6 15 -32 17 -41 3 -3 -6 2
-13 12 -17 10 -4 24 -15 32 -26 7 -10 20 -16 28 -13 21 8 83 -23 83 -42 0 -12
-5 -11 -23 6 -27 26 -37 28 -37 7 0 -13 -4 -13 -27 3 -16 11 -40 27 -56 36
-22 13 -27 23 -25 49 2 23 -1 32 -12 32 -8 0 -22 13 -30 29 l-14 30 -7 -25
c-5 -16 -7 -18 -8 -6 -1 20 -84 62 -101 52 -6 -3 -10 -24 -10 -46 0 -28 -4
-38 -12 -33 -7 5 -9 2 -5 -9 4 -12 2 -14 -10 -10 -13 5 -14 3 -4 -15 9 -17 9
-22 0 -22 -6 0 -9 -7 -5 -17 4 -11 -2 -8 -14 7 -55 69 -54 69 -67 58 -10 -8
-19 -6 -33 7 -11 10 -18 20 -15 23 3 3 0 11 -6 18 -8 10 -16 11 -30 3 -13 -6
-19 -6 -19 1 0 5 -7 10 -15 10 -8 0 -15 -4 -15 -9 0 -12 37 -24 49 -16 5 3 12
1 16 -5 3 -6 -4 -10 -17 -11 -14 0 -17 -3 -8 -6 8 -2 29 -11 47 -19 17 -8 36
-14 42 -14 18 0 5 -45 -14 -48 -9 -2 -15 1 -11 6 3 5 -2 16 -11 23 -11 9 -14
10 -9 2 4 -7 2 -22 -5 -34 -9 -17 -8 -23 2 -30 8 -5 17 -3 21 4 4 7 8 9 8 5 0
-10 46 34 54 52 3 9 4 6 2 -7 -3 -15 2 -24 15 -28 10 -4 19 -10 19 -15 0 -5 3
-15 6 -24 4 -11 0 -16 -14 -16 -11 0 -30 -8 -42 -18 l-21 -17 20 -27 c12 -15
17 -29 12 -32 -5 -4 -12 0 -14 6 -3 7 -6 -2 -6 -21 -1 -28 1 -31 13 -22 12 10
17 8 26 -9 6 -12 14 -19 17 -16 3 3 -1 16 -10 30 -15 22 -15 25 4 42 11 10 19
14 18 9 -1 -6 0 -17 3 -25 3 -8 9 -28 14 -44 5 -16 15 -31 22 -34 7 -2 10 2 6
11 -7 19 8 28 26 17 12 -7 11 -12 -4 -29 -11 -12 -15 -22 -10 -23 5 0 14 -2
19 -3 6 -2 16 -3 24 -4 11 -1 11 -4 1 -16 -10 -12 -15 -13 -21 -4 -5 9 -11 8
-23 -4 -18 -18 -22 -52 -4 -41 6 4 8 3 5 -2 -6 -11 -160 6 -173 18 -3 4 -15 3
-25 -3 -11 -5 -19 -7 -19 -3 0 3 -7 0 -16 -7 -15 -12 -16 -11 -10 9 6 17 4 21
-8 16 -12 -4 -15 -2 -10 9 3 10 0 15 -12 14 -9 -1 -19 4 -22 12 -3 10 0 12 12
8 9 -4 16 -5 16 -3 0 3 3 11 6 19 4 12 0 15 -18 11 -13 -2 -3 3 21 11 43 14
46 14 70 -8 22 -19 24 -19 8 -1 -9 11 -17 31 -17 43 0 19 4 21 22 15 21 -6 22
-5 8 11 -14 17 -16 16 -35 -9 l-20 -27 -10 47 c-5 26 -16 49 -24 52 -11 4 -13
-2 -8 -24 3 -16 9 -37 12 -46 6 -14 2 -18 -19 -18 -20 0 -24 -4 -19 -17 4 -12
-1 -10 -14 6 -25 30 -49 21 -32 -12 9 -17 9 -19 0 -11 -7 6 -14 19 -15 28 -1
10 -7 21 -13 24 -26 16 -8 87 24 99 25 10 45 31 33 35 -7 2 -7 14 -1 36 9 31
9 32 -15 26 -20 -5 -24 -2 -24 16 0 18 4 21 25 18 14 -3 30 1 36 9 9 11 9 12
-4 7 -10 -3 -24 2 -34 12 -17 17 -17 17 11 10 23 -6 27 -4 23 8 -3 8 4 21 17
29 13 9 29 30 37 49 7 18 19 39 26 46 7 7 13 20 13 28 0 8 5 14 10 14 6 0 10
-4 10 -9 0 -6 -4 -13 -10 -16 -14 -9 -13 -35 2 -35 6 0 9 3 5 6 -3 3 4 17 16
30 14 16 24 21 31 14 15 -15 29 -12 23 4 -3 8 0 13 8 12 27 -4 25 -13 -10 -51
-19 -21 -33 -40 -31 -43 2 -2 20 14 39 35 34 36 36 37 54 20 11 -9 26 -17 34
-17 23 0 79 -39 77 -52 -2 -7 7 -14 19 -16 12 -2 27 -10 33 -18 7 -8 18 -14
24 -14 7 0 23 -12 37 -26 27 -30 74 -56 82 -47 4 3 0 17 -7 32 -9 16 -15 66
-16 131 -3 154 -3 160 5 342 l8 167 -36 17 c-35 17 -37 17 -74 -8 -22 -14 -52
-42 -68 -62 -17 -21 -40 -50 -52 -65 -12 -15 -36 -59 -53 -97 -18 -38 -36 -78
-42 -89 -5 -11 -10 -30 -11 -43 0 -12 -5 -22 -9 -22 -5 0 -1 -12 9 -27 l17
-28 -21 18 c-11 10 -33 19 -49 20 -22 2 -29 -3 -35 -23 -6 -22 -7 -20 -8 13
-1 20 -5 37 -10 37 -5 0 -11 10 -13 23 -2 12 -9 21 -16 20 -6 -2 -12 4 -12 12
0 9 6 12 15 9 11 -5 13 -2 9 9 -3 9 -12 13 -22 10 -11 -5 -14 -2 -9 10 5 13 2
14 -16 8 -15 -6 -22 -16 -22 -33 1 -16 -5 -24 -17 -25 -16 -2 -17 0 -3 14 9 8
13 18 10 22 -10 9 -34 -29 -28 -45 12 -32 -33 -4 -54 33 -10 17 -9 24 1 32 7
6 16 8 19 4 4 -3 7 -1 7 5 0 6 -5 14 -12 18 -7 5 -5 11 7 21 24 17 33 17 37
-2 2 -13 6 -12 16 5 11 18 10 20 -19 20 -16 0 -39 -4 -49 -10 -14 -7 -19 -5
-23 10 -3 11 -10 20 -16 20 -7 0 -5 -9 5 -25 15 -23 15 -25 -11 -49 -17 -16
-22 -27 -15 -31 7 -4 14 2 17 13 3 11 12 23 20 27 19 7 32 -3 17 -13 -28 -18
-44 -93 -19 -91 30 4 44 -2 39 -16 -4 -8 -17 -14 -30 -13 -19 2 -27 11 -36 40
-6 21 -15 38 -20 38 -5 0 -6 -5 -3 -10 4 -6 8 -23 11 -38 l4 -27 -19 25 c-14
17 -17 29 -10 42 5 10 5 19 0 23 -5 3 -12 19 -16 35 -4 16 -11 33 -17 37 -8 4
-9 0 -5 -11 4 -10 10 -30 13 -44 4 -21 3 -24 -5 -12 -9 13 -11 12 -11 -4 0
-15 -3 -16 -15 -6 -22 18 -35 3 -35 -39 0 -25 -7 -44 -20 -56 -15 -13 -17 -22
-10 -36 6 -10 10 -20 10 -22 0 -8 -63 -28 -69 -22 -3 3 4 8 15 11 18 5 21 14
21 70 0 49 -3 64 -15 64 -10 0 -12 -7 -7 -27 l7 -28 -23 30 c-13 17 -27 32
-31 35 -4 3 5 21 21 40 32 39 65 100 58 106 -3 3 -16 -15 -30 -39 -14 -24 -33
-50 -42 -57 -26 -22 14 57 48 94 28 31 34 51 18 60 -13 9 -52 -39 -46 -56 4
-9 2 -19 -4 -23 -7 -4 -8 0 -4 11 5 13 3 15 -8 8 -8 -5 -17 -9 -21 -9 -3 0
-10 -4 -15 -9 -5 -5 -3 -6 5 -2 6 4 12 2 12 -4 0 -6 5 -8 10 -5 15 9 12 0 -11
-40 -13 -21 -19 -45 -16 -61 3 -19 1 -24 -12 -22 -25 5 -24 31 4 72 28 41 32
54 12 37 -11 -8 -13 -3 -12 30 1 35 10 48 66 105 l64 65 -60 54 c-33 30 -64
54 -70 54 -9 0 9 -17 89 -83 l29 -24 -34 -31 c-19 -17 -43 -31 -54 -32 -54 -3
-70 -8 -85 -27 -10 -12 -19 -19 -22 -17 -7 7 -2 -41 6 -54 7 -10 4 -11 -12 -2
-18 10 -21 8 -26 -17 -7 -35 -2 -114 8 -130 4 -7 16 -12 26 -12 14 0 18 -5 13
-17 -4 -11 -3 -14 5 -9 7 4 12 2 12 -4 0 -6 10 -4 25 6 30 20 34 1 4 -20 -12
-8 -18 -19 -15 -25 5 -7 -11 -10 -48 -8 -42 1 -52 5 -44 15 6 6 22 12 36 12
23 0 24 2 12 14 -18 18 -76 34 -66 18 4 -6 -8 -9 -34 -6 -21 2 -61 0 -87 -5
-26 -5 -54 -6 -62 -2 -7 5 -27 2 -43 -7 -28 -13 -31 -13 -44 7 -8 11 -22 21
-30 21 -8 0 -14 4 -14 8 0 4 9 8 20 8 11 0 20 -4 20 -9 0 -5 19 -7 43 -4 30 4
47 1 60 -11 16 -14 17 -14 12 0 -4 10 5 22 29 36 45 26 48 53 7 48 -15 -2 -34
-7 -41 -11 -8 -5 -11 -4 -6 3 3 6 -4 18 -16 26 -18 13 -19 16 -5 16 18 0 21 8
11 35 -6 14 -8 14 -24 0 -15 -14 -18 -14 -30 0 -8 9 -21 13 -36 9 -21 -5 -24
-3 -24 21 0 14 -4 24 -9 20 -5 -3 -12 -1 -16 5 -3 5 1 10 9 10 9 0 16 5 16 10
0 6 -12 10 -26 10 -14 0 -23 4 -20 9 4 5 0 12 -6 14 -9 4 -10 6 -1 6 6 1 15
-3 18 -9 3 -5 15 -10 26 -10 11 0 19 -7 19 -16 0 -15 2 -15 25 0 32 21 42 20
56 -6 11 -21 11 -22 -4 -10 -9 8 -21 11 -27 7 -18 -11 -11 -25 15 -25 14 0 25
-4 25 -9 0 -5 9 -13 20 -16 13 -4 20 -15 20 -31 0 -14 4 -22 10 -19 6 3 10 17
10 31 0 21 4 25 23 22 12 -2 23 -10 23 -18 1 -8 2 -19 3 -24 0 -6 6 -5 12 1 6
6 17 9 24 7 9 -4 11 3 8 20 -5 23 -3 24 28 19 l34 -5 -24 26 c-13 14 -28 23
-34 19 -5 -3 -3 -9 4 -14 10 -6 10 -9 2 -9 -17 0 -29 23 -15 28 7 2 12 11 12
20 0 15 2 15 10 2 9 -13 14 -7 11 13 0 4 15 7 34 7 19 0 57 9 85 20 56 22 73
25 50 9 -11 -8 -9 -9 10 -4 14 4 30 12 35 18 7 7 4 8 -10 3 -19 -6 -19 -5 -1
8 10 8 15 19 12 24 -3 6 -3 12 1 15 5 2 2 2 -5 0 -8 -1 -22 -3 -33 -3 -10 0
-19 -5 -19 -11 0 -7 10 -9 28 -5 25 7 26 6 7 -6 -22 -15 -73 -33 -123 -43 -31
-6 -32 -6 -22 20 9 24 8 26 -10 20 -12 -4 -27 -2 -35 5 -10 8 -16 7 -23 -6 -8
-15 -11 -14 -31 7 -28 31 -29 60 -1 34 11 -10 20 -13 20 -7 0 6 6 9 13 6 8 -3
20 3 28 12 12 16 12 17 -5 11 -15 -6 -17 -5 -8 6 7 8 9 16 6 20 -3 3 -1 14 5
26 8 14 8 22 -1 27 -6 4 -8 3 -5 -3 4 -6 0 -16 -8 -23 -7 -6 -12 -17 -9 -25 3
-7 0 -16 -7 -21 -7 -4 -10 -3 -6 3 3 5 -8 20 -26 33 -18 14 -26 17 -18 7 12
-15 11 -17 -2 -17 -9 0 -19 5 -22 10 -11 18 -63 8 -69 -13 -2 -10 -2 -16 1
-13 3 3 14 -6 25 -19 11 -14 26 -25 33 -25 9 0 13 -11 13 -30 -1 -32 -12 -40
-22 -15 -3 8 -12 15 -19 15 -8 0 -20 7 -27 15 -15 18 -31 20 -27 4 1 -6 -4
-14 -10 -16 -8 -3 -13 4 -13 16 0 12 -6 21 -12 21 -10 0 -9 3 1 9 8 5 10 14 6
22 -6 9 -4 11 8 6 23 -9 28 4 12 33 -13 23 -11 28 18 58 31 32 24 43 -12 20
-15 -9 -23 -9 -35 1 -9 7 -13 18 -10 23 4 5 1 20 -6 33 -15 28 1 50 45 61 19
5 25 11 22 25 -3 10 4 25 16 36 12 10 17 12 12 4 -5 -9 2 -7 17 5 29 21 27 38
-3 29 -11 -4 -19 -2 -19 4 0 6 5 11 10 11 6 0 10 7 10 15 0 19 14 19 33 0 8
-8 17 -11 20 -8 4 3 21 0 39 -8 32 -13 32 -13 8 -20 -23 -7 -24 -7 -3 -8 53
-2 108 -50 60 -52 -14 0 -17 -2 -7 -6 8 -3 27 -20 42 -37 16 -17 34 -31 42
-31 21 0 63 -49 91 -106 14 -27 30 -49 35 -49 6 0 10 -6 10 -13 0 -7 16 -19
35 -26 48 -17 95 -58 113 -101 15 -33 16 -33 20 -11 2 13 14 40 26 60 13 20
40 68 60 106 56 104 165 262 215 311 39 39 84 61 156 77 49 11 205 6 241 -7z
m-1576 -11 c0 -8 -4 -15 -10 -15 -5 0 -10 7 -10 15 0 8 5 15 10 15 6 0 10 -7
10 -15z m64 -3 c2 -4 -4 -8 -14 -8 -10 0 -16 4 -14 8 3 4 9 8 14 8 5 0 11 -4
14 -8z m-270 -8 c9 -3 13 -11 9 -18 -3 -6 -1 -6 8 2 17 16 37 16 21 0 -7 -7
-12 -18 -12 -26 0 -10 3 -10 16 2 20 20 34 20 34 1 0 -9 -12 -18 -30 -22 -22
-4 -30 -11 -28 -23 2 -9 1 -17 -2 -18 -13 -4 -50 11 -50 20 0 6 -6 8 -14 5
-22 -9 -36 12 -26 39 8 19 6 22 -8 18 -9 -2 -3 2 13 10 34 17 46 19 69 10z
m329 -11 c-5 -15 -4 -16 8 -7 21 17 51 13 57 -8 2 -10 9 -18 14 -18 5 0 7 4 4
9 -3 5 2 15 12 22 14 11 15 11 5 0 -6 -7 -9 -19 -7 -26 4 -9 -8 -15 -35 -20
-25 -4 -45 -14 -51 -26 -9 -15 -7 -19 7 -19 9 0 0 -9 -22 -20 -22 -11 -40 -20
-40 -20 0 0 -2 12 -3 26 -5 61 -53 110 -66 67 -4 -15 -4 -15 -3 2 2 16 10 20
37 20 28 0 35 -4 35 -20 0 -16 7 -20 29 -18 16 1 32 6 35 11 3 5 15 12 26 17
19 8 19 8 1 13 -10 2 -22 -2 -26 -8 -4 -7 -13 -9 -19 -6 -14 9 -15 46 -1 46 5
0 6 -8 3 -17z m-133 -19 c0 -17 -12 -18 -28 -2 -18 18 -15 27 8 21 11 -3 20
-12 20 -19z m316 -5 c14 0 15 -2 4 -6 -8 -3 -17 -10 -20 -14 -3 -5 -14 6 -25
24 -18 32 -18 32 2 15 11 -10 28 -18 39 -19z m39 21 c8 -13 -5 -13 -25 0 -13
8 -13 10 2 10 9 0 20 -4 23 -10z m-398 -52 c2 -20 1 -20 -13 -2 -11 14 -14 15
-13 4 3 -27 -1 -40 -11 -40 -5 0 -7 7 -4 15 9 22 -19 18 -34 -5 -7 -11 -20
-20 -30 -20 -16 1 -16 1 1 14 9 7 17 17 17 22 0 4 12 18 27 30 31 24 58 16 60
-18z m163 21 c0 -5 -4 -9 -10 -9 -5 0 -10 7 -10 16 0 8 5 12 10 9 6 -3 10 -10
10 -16z m608 -29 c7 0 10 4 7 10 -4 6 1 7 11 3 11 -4 13 -8 6 -11 -7 -2 -12
-10 -12 -18 0 -8 -4 -14 -9 -14 -5 0 -11 -6 -14 -14 -4 -9 0 -12 13 -9 10 3
27 0 37 -6 17 -10 17 -10 0 -11 -14 0 -16 -4 -8 -19 10 -18 7 -21 -51 -49 -5
-2 -4 8 2 22 8 23 7 26 -10 26 -11 0 -20 6 -21 13 0 10 -2 10 -6 0 -6 -16 -25
-17 -41 -1 -10 10 -7 15 10 25 16 9 18 12 7 13 -17 0 -22 28 -7 47 6 8 19 9
41 2 18 -5 38 -9 45 -9z m-516 -23 c-12 -6 -25 -7 -29 -3 -11 10 18 25 35 18
13 -4 11 -8 -6 -15z m52 7 c3 -8 2 -12 -4 -9 -6 3 -10 10 -10 16 0 14 7 11 14
-7z m-634 -14 c0 -11 -5 -20 -11 -20 -5 0 -8 4 -4 9 3 6 -3 14 -12 20 -16 9
-16 10 5 11 15 0 22 -6 22 -20z m38 8 c-6 -18 -28 -21 -28 -4 0 9 7 16 16 16
9 0 14 -5 12 -12z m204 -50 c-12 -13 -22 -17 -22 -11 0 15 31 46 38 38 3 -3
-4 -15 -16 -27z m118 17 c0 -17 -45 -21 -55 -6 -4 8 4 12 48 20 4 0 7 -6 7
-14z m190 5 c0 -5 -5 -10 -11 -10 -5 0 -7 5 -4 10 3 6 8 10 11 10 2 0 4 -4 4
-10z m-40 -14 c0 -2 -7 -7 -16 -10 -8 -3 -12 -2 -9 4 6 10 25 14 25 6z m-70
-30 c0 -3 -4 -8 -10 -11 -5 -3 -10 -1 -10 4 0 6 5 11 10 11 6 0 10 -2 10 -4z
m705 -46 c-27 -12 -43 -12 -25 0 8 5 22 9 30 9 10 0 8 -3 -5 -9z m-540 -29 c3
-5 1 -12 -5 -16 -15 -9 -12 -35 5 -35 8 0 19 -8 24 -18 8 -16 5 -18 -26 -20
-20 -2 -40 -5 -45 -8 -4 -3 -8 0 -8 6 0 6 6 13 14 16 21 8 15 42 -9 50 -19 6
-19 7 3 11 12 2 22 9 22 14 0 12 17 12 25 0z m526 -6 c0 -5 -13 -13 -29 -16
-25 -5 -29 -3 -24 13 3 13 12 18 29 16 13 -2 24 -7 24 -13z m34 -15 c3 -5 1
-10 -4 -10 -6 0 -11 5 -11 10 0 6 2 10 4 10 3 0 8 -4 11 -10z m-1289 -17 c-3
-3 -1 -14 5 -24 6 -13 6 -19 -1 -19 -5 0 -10 7 -10 16 0 8 -4 13 -9 10 -5 -3
-14 1 -20 8 -10 11 -8 15 6 18 20 5 37 -1 29 -9z m-63 -20 c-3 -22 1 -30 18
-38 24 -11 38 -35 20 -35 -6 0 -11 7 -11 15 0 8 -4 15 -9 15 -5 0 -11 -7 -15
-15 -3 -8 -12 -15 -21 -15 -8 0 -15 -5 -15 -11 0 -6 -7 -8 -16 -5 -8 3 -12 2
-9 -4 3 -6 1 -10 -4 -10 -6 0 -11 10 -11 23 0 12 -7 32 -15 43 -8 12 -11 24
-8 28 13 13 22 5 28 -24 10 -44 21 -36 18 13 -3 34 -1 38 7 20 13 -31 30 -29
30 2 0 14 4 25 8 25 5 0 7 -12 5 -27z m-230 11 c10 -11 -4 -33 -18 -28 -8 3
-11 12 -8 20 5 15 16 18 26 8z m73 -19 c4 -10 13 -13 25 -10 21 7 25 -5 7 -23
-8 -8 -8 -15 3 -29 11 -14 9 -14 -10 2 -13 11 -32 32 -43 48 -17 23 -17 27 -3
27 8 0 18 -7 21 -15z m871 -17 c-3 -8 -6 -5 -6 6 -1 11 2 17 5 13 3 -3 4 -12
1 -19z m627 7 c-7 -16 -24 -21 -24 -6 0 8 7 13 27 20 1 1 0 -6 -3 -14z m-1531
-19 c-4 -22 -2 -24 18 -19 23 5 23 5 7 -12 -16 -18 -18 -17 -37 6 -14 17 -16
28 -9 37 17 19 26 14 21 -12z m-90 -1 c-3 -9 -8 -14 -10 -11 -3 3 -2 9 2 15 9
16 15 13 8 -4z m37 -5 c0 -5 -4 -10 -10 -10 -5 0 -10 5 -10 10 0 6 5 10 10 10
6 0 10 -4 10 -10z m380 -5 c0 -8 -6 -15 -14 -15 -20 0 -29 17 -14 23 22 9 28
7 28 -8z m515 -3 c-3 -3 -11 0 -18 7 -9 10 -8 11 6 5 10 -3 15 -9 12 -12z
m-588 -14 c-3 -8 -6 -5 -6 6 -1 11 2 17 5 13 3 -3 4 -12 1 -19z m745 -17 c-3
-30 -7 -35 -22 -26 -9 5 -9 10 -1 18 15 15 14 27 -4 27 -8 0 -15 -7 -15 -15 0
-9 -6 -12 -15 -9 -11 4 -13 2 -9 -9 3 -10 -2 -18 -15 -22 -12 -3 -19 -11 -16
-16 4 -5 14 -5 25 1 27 14 34 12 20 -5 -10 -12 -10 -15 4 -15 9 0 16 -5 16
-10 0 -6 -11 -8 -25 -4 -19 5 -25 2 -25 -11 0 -9 7 -23 15 -31 18 -19 20 -55
3 -51 -7 1 -18 8 -24 16 -6 8 -18 11 -28 8 -9 -4 -16 -2 -16 3 0 6 5 10 10 10
6 0 10 6 8 13 -1 6 3 22 10 34 11 20 9 23 -23 34 -39 15 -47 31 -12 29 45 -4
57 0 57 20 0 12 -7 21 -17 21 -27 2 48 17 77 15 20 -1 24 -6 22 -25z m548 20
c0 -19 -22 -23 -38 -7 -15 15 -14 16 11 16 15 0 27 -4 27 -9z m-1063 -7 c-3
-3 -12 -4 -19 -1 -8 3 -5 6 6 6 11 1 17 -2 13 -5z m-572 -14 c3 -5 1 -10 -4
-10 -6 0 -11 5 -11 10 0 6 2 10 4 10 3 0 8 -4 11 -10z m320 -18 c25 -14 1 -16
-26 -1 -11 5 -17 15 -13 21 4 6 9 6 13 1 3 -5 15 -15 26 -21z m145 18 c0 -5
-17 -9 -37 -9 -38 1 -38 1 -8 9 43 11 45 11 45 0z m310 2 c0 -5 -16 -27 -36
-50 -19 -23 -31 -42 -26 -42 6 0 22 14 36 31 14 17 26 27 26 22 0 -5 -13 -21
-28 -36 -24 -23 -32 -26 -60 -18 -19 6 -34 6 -37 0 -9 -13 -35 -11 -35 4 0 6
-15 22 -33 35 l-32 22 28 0 c15 0 27 -4 27 -10 0 -12 36 -14 43 -2 2 4 2 2 1
-5 -2 -6 4 -17 12 -23 11 -10 14 -8 15 11 2 23 2 23 6 2 3 -14 9 -20 19 -16 7
3 11 9 8 14 -3 5 0 9 5 9 6 0 10 5 9 12 -2 7 7 17 20 23 12 5 22 13 22 17 0 5
2 8 5 8 3 0 5 -4 5 -8z m-590 -12 c0 -5 -5 -10 -11 -10 -5 0 -7 5 -4 10 3 6 8
10 11 10 2 0 4 -4 4 -10z m654 -6 c9 -25 6 -41 -4 -22 -6 10 -18 14 -30 11
-11 -3 -20 -1 -20 5 0 9 14 16 41 21 4 0 10 -6 13 -15z m-869 -4 c3 -5 1 -10
-4 -10 -6 0 -11 5 -11 10 0 6 2 10 4 10 3 0 8 -4 11 -10z m295 -10 c0 -5 -7
-10 -16 -10 -8 0 -12 5 -9 10 3 6 10 10 16 10 5 0 9 -4 9 -10z m223 3 c-13 -2
-33 -2 -45 0 -13 2 -3 4 22 4 25 0 35 -2 23 -4z m54 1 c-3 -3 -12 -4 -19 -1
-8 3 -5 6 6 6 11 1 17 -2 13 -5z m683 -16 c0 -13 -23 -5 -28 10 -2 7 2 10 12
6 9 -3 16 -11 16 -16z m-1299 -1 c-1 -12 -15 -9 -19 4 -3 6 1 10 8 8 6 -3 11
-8 11 -12z m487 -2 c2 -1 -8 -5 -22 -7 -16 -3 -27 0 -30 9 -4 10 1 12 22 7 15
-4 28 -8 30 -9z m-278 -15 c-8 -5 -18 -6 -24 -3 -5 4 -1 10 10 13 24 9 34 2
14 -10z m419 -7 c44 -28 43 -57 0 -30 -13 8 -37 18 -52 21 -24 6 -27 9 -17 21
17 20 22 19 69 -12z m271 16 c0 -7 12 -8 33 -4 21 4 27 3 17 -3 -8 -5 -35 -10
-59 -9 -40 0 -43 1 -26 13 23 17 35 18 35 3z m-365 -9 c-3 -5 -18 -10 -33 -9
-24 0 -25 1 -7 9 28 12 47 12 40 0z m505 -25 c0 -8 -8 -15 -17 -15 -14 0 -15
-2 -4 -9 16 -10 7 -30 -12 -27 -20 3 -36 16 -48 38 -10 18 -9 20 5 15 9 -4 16
-3 16 1 0 4 14 8 30 9 21 2 30 -2 30 -12z m-105 -15 c-4 -11 -2 -20 4 -20 6 0
11 -5 11 -11 0 -6 -8 -8 -20 -4 -15 5 -21 0 -26 -20 -4 -17 -11 -24 -20 -21
-17 6 -18 -6 -3 -21 8 -8 4 -15 -17 -27 l-29 -15 27 1 c15 1 24 6 22 10 -3 4
2 8 10 8 9 0 16 -5 16 -10 0 -7 6 -7 19 0 11 5 27 10 37 10 14 0 15 -2 3 -17
-10 -11 -10 -14 -1 -9 19 11 15 -18 -7 -42 -18 -22 -38 -31 -27 -13 6 8 -23
25 -30 18 -2 -2 11 -19 29 -39 35 -38 37 -58 7 -58 -23 0 -31 -12 -20 -29 4
-8 13 -10 20 -6 7 5 29 9 49 10 35 2 36 2 9 -8 -35 -14 -37 -30 -2 -21 17 4
29 2 35 -7 8 -12 12 -11 22 3 12 15 14 15 25 -2 9 -16 9 -18 -2 -14 -8 3 -17
1 -20 -5 -8 -12 22 -43 35 -36 16 10 10 -5 -11 -27 -11 -12 -20 -17 -20 -10 0
7 -9 6 -27 -4 -16 -7 -34 -14 -42 -14 -11 0 -11 -3 0 -16 12 -14 14 -14 26 2
7 10 16 15 19 11 4 -4 1 -13 -5 -21 -17 -20 -1 -26 42 -17 24 6 38 5 41 -3 3
-7 8 -6 15 4 6 8 6 19 1 25 -13 15 3 36 19 26 9 -6 10 -11 2 -15 -15 -10 5
-46 24 -46 21 0 19 20 -2 21 -11 0 -13 3 -5 6 6 2 10 9 6 14 -3 5 0 9 5 9 6 0
20 9 31 20 24 24 26 10 5 -31 -19 -36 -12 -53 15 -39 28 15 48 12 27 -4 -20
-15 -6 -33 15 -20 8 5 9 2 5 -9 -10 -26 10 -70 28 -63 8 3 15 1 15 -4 0 -11
-40 -50 -52 -50 -4 0 -8 -4 -8 -10 0 -5 15 -10 33 -10 21 0 28 3 19 9 -11 7
-11 9 2 14 9 4 16 1 17 -6 0 -7 5 1 11 16 9 25 14 28 37 22 14 -4 28 -8 29
-10 8 -7 -10 -25 -24 -25 -8 0 -14 -4 -14 -9 0 -5 -12 -12 -26 -15 -36 -9 -24
-30 20 -34 31 -3 35 -6 26 -18 -10 -11 -8 -15 6 -21 11 -4 27 -17 37 -30 17
-21 65 -34 53 -14 -3 4 5 6 18 4 13 -3 40 3 60 12 33 16 65 13 40 -3 -6 -4
-14 -16 -17 -27 -6 -17 -4 -16 14 4 16 20 31 25 70 26 32 1 55 7 66 18 16 16
15 17 -12 18 -17 0 -39 4 -50 9 -13 6 -2 7 30 3 28 -3 57 -14 67 -23 9 -10 23
-20 30 -23 11 -4 10 -7 -1 -15 -14 -10 -61 -9 -79 2 -6 3 -14 1 -18 -5 -4 -8
-3 -9 5 -5 6 4 14 0 17 -9 4 -10 13 -14 22 -10 13 5 13 3 -1 -13 -9 -10 -17
-24 -17 -30 0 -7 -4 -12 -10 -12 -5 0 -7 13 -3 32 6 31 6 31 -30 25 -35 -5
-51 6 -24 16 9 4 9 6 0 6 -7 1 -17 -8 -22 -18 -9 -17 -7 -19 20 -17 40 3 60
-20 28 -33 -14 -5 -25 -5 -27 0 -7 18 -20 9 -15 -10 3 -11 16 -22 29 -25 14
-4 22 -11 19 -16 -4 -6 4 -14 17 -19 13 -6 17 -10 10 -10 -7 -1 -20 3 -30 9
-9 5 -29 14 -44 20 -18 6 -26 14 -22 24 4 11 -13 14 -96 14 -75 0 -107 4 -125
16 -13 9 -33 16 -43 16 -11 0 -25 7 -32 15 -7 8 -16 13 -20 10 -4 -3 -10 9
-13 25 -6 27 -10 29 -39 26 -34 -4 -73 15 -60 29 4 5 1 5 -6 0 -15 -8 -62 12
-75 32 -4 7 -21 10 -41 8 -22 -3 -38 1 -46 10 -7 8 -18 15 -24 15 -18 1 -61
38 -53 47 5 4 12 1 16 -6 5 -7 14 -12 21 -9 13 4 -77 68 -96 68 -5 0 -19 11
-31 24 l-22 23 24 -3 c14 -1 28 3 32 8 4 7 -1 9 -15 6 -14 -4 -27 2 -41 18
-26 30 -26 32 2 37 16 3 14 5 -10 6 -32 1 -58 21 -29 21 9 0 16 5 16 11 0 7
-12 10 -30 7 -25 -4 -31 0 -39 24 -6 17 -6 28 0 28 5 0 9 5 9 10 0 7 -6 7 -17
2 -28 -15 -39 -4 -35 33 4 30 1 35 -17 35 -20 0 -57 51 -45 63 3 3 -3 3 -15 0
-17 -4 -21 -1 -21 17 0 13 7 28 17 35 22 16 10 49 -16 40 -14 -4 -20 1 -25 20
-5 21 -11 25 -29 21 -13 -4 -10 0 8 9 l30 14 -37 1 c-20 0 -40 5 -43 10 -4 6
-3 10 2 9 26 -5 63 2 58 11 -4 6 6 10 24 10 16 0 32 -6 34 -12 4 -10 8 -9 16
2 12 18 18 12 25 -23 2 -14 7 -31 11 -37 3 -5 -2 -10 -12 -11 -11 0 -13 -3 -5
-6 6 -2 10 -9 6 -14 -3 -5 -1 -9 5 -9 5 0 8 -8 6 -18 -6 -31 8 -42 40 -33 22
6 29 13 27 27 -2 10 -9 22 -15 26 -8 5 -7 8 3 8 8 0 0 9 -17 20 -36 21 -39 30
-21 48 9 9 7 13 -5 18 -9 3 -17 9 -17 13 0 11 31 7 57 -7 18 -10 23 -9 27 6 3
10 14 19 23 20 10 1 38 5 63 9 85 16 92 15 85 -7z m195 -10 c0 -5 -7 -10 -15
-10 -8 0 -15 5 -15 10 0 6 7 10 15 10 8 0 15 -4 15 -10z m-102 -66 c17 -17 15
-39 -4 -55 -15 -12 -16 -10 -10 18 6 26 4 32 -13 38 -12 3 -21 10 -21 15 0 11
30 1 48 -16z m103 3 c-10 -9 -11 -8 -5 6 3 10 9 15 12 12 3 -3 0 -11 -7 -18z
m-176 3 c3 -5 2 -10 -4 -10 -5 0 -13 5 -16 10 -3 6 -2 10 4 10 5 0 13 -4 16
-10z m-736 -44 c1 -6 -5 -1 -13 9 -8 11 -12 24 -8 29 5 9 20 -17 21 -38z m119
4 c7 0 10 -5 7 -10 -4 -7 2 -9 17 -5 26 7 55 -16 44 -34 -3 -5 -1 -11 6 -13
20 -7 0 -37 -29 -43 -40 -9 -66 -23 -97 -52 -15 -14 -30 -23 -33 -20 -7 8 -6
46 2 80 5 20 2 33 -10 47 -10 11 -15 20 -11 20 11 0 60 -32 75 -49 10 -13 14
-13 18 -3 4 10 9 10 23 -3 10 -9 23 -14 28 -11 21 13 -1 44 -53 77 -57 36 -75
58 -27 33 15 -7 33 -14 40 -14z m1168 4 c-5 -13 -3 -14 7 -6 10 8 13 7 14 -8
2 -25 -34 -34 -40 -10 -3 10 0 23 6 29 16 16 20 14 13 -5z m-926 -14 c0 -11
-2 -20 -4 -20 -2 0 -6 9 -9 20 -3 11 -1 20 4 20 5 0 9 -9 9 -20z m130 -6 c0
-8 -4 -12 -10 -9 -5 3 -10 13 -10 21 0 8 5 12 10 9 6 -3 10 -13 10 -21z m625
16 c3 -5 1 -10 -4 -10 -6 0 -11 5 -11 10 0 6 2 10 4 10 3 0 8 -4 11 -10z
m-905 -10 c0 -5 -4 -10 -10 -10 -5 0 -10 5 -10 10 0 6 5 10 10 10 6 0 10 -4
10 -10z m-398 -42 c-7 -7 -12 -8 -12 -2 0 6 3 14 7 17 3 4 9 5 12 2 2 -3 -1
-11 -7 -17z m413 12 c3 -5 -1 -10 -9 -10 -9 0 -16 5 -16 10 0 6 4 10 9 10 6 0
13 -4 16 -10z m175 0 c0 -5 -5 -10 -11 -10 -5 0 -7 5 -4 10 3 6 8 10 11 10 2
0 4 -4 4 -10z m715 -1 c11 -16 1 -19 -13 -3 -7 8 -8 14 -3 14 5 0 13 -5 16
-11z m-1130 -29 c26 -29 15 -32 -13 -4 -12 13 -19 24 -14 24 5 0 17 -9 27 -20z
m1294 -16 c-15 -16 -25 -21 -28 -13 -2 7 4 18 15 26 30 22 39 15 13 -13z
m-1019 8 c0 -5 -7 -9 -15 -9 -8 0 -15 4 -15 9 0 4 7 8 15 8 8 0 15 -4 15 -8z
m-289 -23 c13 -13 19 -29 16 -41 -4 -15 -2 -18 10 -13 9 3 4 -6 -10 -21 -15
-15 -27 -32 -28 -38 0 -6 -6 5 -12 24 -8 23 -18 35 -30 34 -11 -1 -17 5 -17
18 0 15 4 18 23 12 12 -3 28 -11 35 -16 6 -6 12 -7 12 -2 0 18 -16 31 -44 38
-23 6 -27 9 -15 17 22 14 37 11 60 -12z m1264 11 c3 -5 1 -10 -4 -10 -6 0 -11
5 -11 10 0 6 2 10 4 10 3 0 8 -4 11 -10z m-1348 -31 c2 -16 -1 -19 -9 -11 -5
5 -7 15 -4 21 10 15 12 14 13 -10z m1033 11 c0 -5 -4 -10 -10 -10 -5 0 -10 5
-10 10 0 6 5 10 10 10 6 0 10 -4 10 -10z m-1088 -51 c-6 -36 -39 -86 -63 -92
-15 -4 -19 -2 -15 10 3 8 6 21 6 29 0 8 3 13 8 13 18 -3 24 2 14 14 -6 6 -8
24 -5 38 4 23 8 26 31 20 21 -6 26 -13 24 -32z m968 37 c0 -3 -4 -8 -10 -11
-5 -3 -10 -1 -10 4 0 6 5 11 10 11 6 0 10 -2 10 -4z m463 -36 c-6 -24 -23 -37
-23 -18 0 12 18 38 26 38 1 0 0 -9 -3 -20z m-313 -20 c0 -5 -2 -10 -4 -10 -3
0 -8 5 -11 10 -3 6 -1 10 4 10 6 0 11 -4 11 -10z m564 -18 c-3 -105 -3 -105
-21 -91 -15 13 -16 12 -11 -8 4 -13 3 -23 -2 -23 -18 0 -17 41 1 54 16 11 19
20 13 56 -6 34 -4 42 7 38 8 -3 14 -14 13 -26z m-1517 4 c-4 -11 -1 -13 10 -9
11 4 14 2 9 -5 -10 -16 -36 -15 -36 1 0 13 9 27 18 27 2 0 2 -7 -1 -14z m363
4 c0 -5 -8 -10 -17 -10 -15 0 -16 2 -3 10 19 12 20 12 20 0z m1190 -41 c0 -21
-4 -39 -10 -39 -5 0 -10 21 -10 46 0 27 4 43 10 39 6 -3 10 -24 10 -46z
m-1243 -4 c-4 -8 -18 -15 -32 -15 -29 0 -43 -23 -26 -44 8 -10 8 -16 -2 -25
-8 -6 -17 -8 -20 -4 -4 3 -9 -2 -13 -11 -3 -9 -12 -16 -20 -16 -8 0 -14 -3
-14 -8 0 -4 -20 -7 -45 -6 -25 1 -48 -3 -52 -9 -3 -6 -1 -7 5 -3 8 5 12 -1 12
-14 0 -20 -1 -20 -16 -5 -15 15 -18 15 -38 -2 -11 -10 -23 -21 -26 -24 -10
-11 -119 -89 -125 -89 -11 0 18 25 55 47 38 23 89 73 75 73 -5 0 -17 -8 -27
-17 -18 -16 -18 -16 -12 3 4 10 10 21 13 24 3 3 11 14 17 25 6 11 21 25 32 31
12 6 20 14 17 17 -3 4 -2 5 1 2 4 -2 24 5 45 15 41 21 74 26 64 10 -3 -5 -1
-10 4 -10 6 0 11 5 11 10 0 6 4 10 9 10 5 0 7 -9 4 -20 -3 -12 0 -20 8 -20 7
0 9 3 6 6 -12 12 24 59 56 74 37 18 42 17 34 -5z m1503 8 c0 -7 -6 -10 -13 -7
-10 3 -14 -9 -16 -48 -2 -52 -18 -87 -28 -60 -3 6 -9 10 -14 6 -5 -3 -9 -1 -9
4 0 6 8 13 17 16 15 6 15 8 3 17 -10 6 -12 11 -4 17 12 8 26 52 15 50 -3 0
-15 1 -26 2 -17 2 -16 3 5 9 36 11 70 8 70 -6z m-440 -9 c0 -8 -4 -12 -10 -9
-5 3 -10 10 -10 16 0 5 5 9 10 9 6 0 10 -7 10 -16z m-1540 -11 c0 -28 -16 -48
-25 -33 -4 7 -2 16 5 20 7 4 9 13 6 19 -4 6 -2 11 3 11 6 0 11 -8 11 -17z
m140 5 c0 -11 -12 -10 -30 2 -12 7 -10 9 8 7 12 0 22 -5 22 -9z m363 -3 c-3
-9 -8 -14 -10 -11 -3 3 -2 9 2 15 9 16 15 13 8 -4z m1387 -16 c0 -4 -7 -6 -15
-3 -8 4 -15 10 -15 15 0 4 7 6 15 3 8 -4 15 -10 15 -15z m-723 -17 c-9 -2 -14
-8 -11 -14 7 -11 -13 -28 -32 -28 -14 0 -26 28 -18 42 3 5 12 1 20 -9 8 -10
14 -13 13 -8 -4 26 2 33 24 27 18 -5 19 -7 4 -10z m79 1 c-4 -9 -2 -19 3 -22
5 -4 1 -17 -10 -31 -18 -22 -19 -22 -10 -3 9 19 8 24 -10 33 -20 11 -20 12 -2
25 25 19 36 18 29 -2z m644 -20 c0 -3 -12 -2 -27 2 -22 5 -25 4 -15 -8 7 -8 8
-17 4 -22 -4 -4 3 -4 16 -1 25 8 28 1 8 -20 -8 -7 -12 -22 -10 -31 3 -10 -6
-31 -18 -46 l-23 -28 -2 73 c-3 77 -17 102 -51 91 -14 -4 -14 -3 -3 5 8 6 20
8 27 5 7 -2 21 0 30 5 13 7 25 6 41 -5 13 -8 23 -18 23 -20z m-1410 23 c0 -2
-7 -7 -16 -10 -8 -3 -12 -2 -9 4 6 10 25 14 25 6z m1095 -24 c-3 -3 -11 0 -18
7 -9 10 -8 11 6 5 10 -3 15 -9 12 -12z m-1648 -24 c-3 -8 -6 -5 -6 6 -1 11 2
17 5 13 3 -3 4 -12 1 -19z m1565 -14 c-4 -35 -5 -35 -17 -12 -8 15 -8 27 -2
36 17 21 23 13 19 -24z m-428 17 c3 -5 -3 -11 -15 -14 -16 -4 -18 -3 -8 9 13
16 16 17 23 5z m-472 -44 c19 -12 25 -22 21 -37 -7 -25 -20 -26 -26 -2 -4 13
-5 12 -6 -5 0 -12 4 -23 11 -25 8 -3 7 -11 -5 -28 -17 -25 -41 -33 -67 -24
-12 4 -10 10 10 25 14 12 19 18 13 14 -7 -3 -13 0 -13 7 0 8 -4 7 -11 -4 -11
-20 -39 -13 -39 9 0 10 -6 13 -16 9 -14 -5 -15 -4 -4 9 15 18 -1 20 -19 3 -10
-11 -11 -9 -5 5 6 16 3 16 -32 -3 -22 -12 -54 -38 -71 -58 -35 -38 -44 -33
-16 8 l16 25 -24 -22 c-14 -13 -31 -23 -38 -23 -29 0 13 31 102 76 50 25 97
50 104 56 7 6 13 8 13 4 0 -4 12 0 27 8 21 11 30 11 38 2 5 -7 22 -20 37 -29z
m779 20 c-10 -9 -11 -8 -5 6 3 10 9 15 12 12 3 -3 0 -11 -7 -18z m568 -42 c13
5 13 4 4 -6 -15 -15 -43 5 -42 30 0 11 4 9 11 -7 8 -15 17 -21 27 -17z m-559
10 c-7 -9 -15 -13 -17 -11 -7 7 7 26 19 26 6 0 6 -6 -2 -15z m-96 -10 c-4 -8
-10 -12 -15 -9 -14 8 -10 24 6 24 9 0 12 -6 9 -15z m-1051 -20 c-3 -9 -8 -14
-10 -11 -3 3 -2 9 2 15 9 16 15 13 8 -4z m-31 -42 c-5 -10 -11 -23 -13 -30 -3
-8 -9 -9 -17 -4 -11 7 -9 13 9 30 28 26 33 26 21 4z m1675 -3 c1 -11 -2 -22
-8 -25 -5 -4 -6 2 -2 11 5 14 3 16 -13 11 -19 -7 -19 -7 0 8 11 8 20 15 21 15
0 0 1 -9 2 -20z m-366 -24 c15 -13 25 -27 21 -31 -4 -3 1 -11 11 -16 18 -11
23 -29 8 -29 -5 0 -17 8 -26 17 -24 24 -85 55 -85 43 0 -5 12 -17 26 -27 l26
-17 -23 -17 c-13 -9 -29 -15 -36 -12 -18 7 -16 23 3 23 14 0 14 2 0 22 -22 31
-20 47 7 58 33 13 36 12 68 -14z m-893 -15 c-7 -12 -16 -21 -20 -21 -10 0 3
33 16 42 17 11 18 2 4 -21z m1193 -3 c-5 -14 -17 -28 -25 -31 -17 -7 -19 -57
-2 -57 5 0 1 -9 -8 -19 -10 -11 -15 -25 -11 -30 11 -18 -11 -12 -29 8 -17 18
-17 20 3 40 11 11 15 21 10 23 -6 2 -3 17 6 35 10 20 21 30 30 27 8 -3 16 3
20 16 4 12 9 20 11 17 3 -2 0 -15 -5 -29z m-921 -10 c0 -17 -17 -14 -32 7 -17
23 -17 23 7 11 14 -6 25 -14 25 -18z m695 -26 c-8 -8 -25 10 -25 26 0 13 2 13
14 -4 8 -10 13 -21 11 -22z m638 18 c3 -11 1 -18 -4 -14 -5 3 -9 12 -9 20 0
20 7 17 13 -6z m-376 -10 c10 -13 8 -16 -10 -17 -12 0 -17 1 -10 4 7 2 9 12 6
21 -6 18 -5 17 14 -8z m-1287 6 c0 -11 -19 -15 -25 -6 -3 5 1 10 9 10 9 0 16
-2 16 -4z m830 -20 c0 -8 -4 -18 -10 -21 -5 -3 -10 3 -10 14 0 12 5 21 10 21
6 0 10 -6 10 -14z m950 -56 c0 -10 15 -31 33 -46 17 -15 24 -25 14 -21 -10 4
-26 7 -35 7 -13 0 -14 2 -3 9 9 6 10 11 2 15 -6 4 -18 20 -26 36 -14 26 -14
29 0 24 8 -4 15 -14 15 -24z m-2107 -34 c3 3 34 7 70 10 49 3 68 0 77 -11 10
-12 9 -15 -8 -15 -12 0 -24 5 -27 10 -3 6 -12 10 -18 10 -7 0 -6 -4 3 -10 10
-6 1 -8 -30 -6 -25 1 -50 -1 -56 -6 -14 -11 -41 -1 -48 18 -4 11 -2 12 13 5
10 -6 21 -8 24 -5z m1625 -31 c-12 -9 -68 -22 -68 -15 0 10 52 29 63 23 5 -3
7 -6 5 -8z m-1456 -6 c10 0 20 -4 23 -10 4 -5 -13 -9 -37 -9 -24 0 -87 -2
-140 -4 -55 -2 -98 1 -98 6 0 15 30 21 45 8 10 -8 15 -9 15 -2 0 11 101 20
150 14 14 -2 33 -3 42 -3z m1018 1 c0 -5 -2 -10 -4 -10 -3 0 -8 5 -11 10 -3 6
-1 10 4 10 6 0 11 -4 11 -10z m-360 -70 l1 -25 11 23 c6 12 14 22 18 22 15 0
20 -32 8 -53 -7 -12 -11 -29 -10 -38 2 -9 -4 -19 -13 -23 -13 -4 -14 -2 -5 14
9 16 8 20 -5 20 -8 0 -15 9 -15 19 0 11 -9 23 -21 26 -14 5 -18 12 -13 23 3
10 9 28 12 41 l5 24 13 -24 c7 -13 14 -35 14 -49z m1345 56 c11 0 34 -13 50
-28 17 -15 36 -26 43 -23 7 2 12 -4 12 -15 0 -24 -6 -25 -26 -5 -12 12 -19 12
-34 3 -10 -7 -16 -16 -13 -22 3 -5 1 -6 -4 -3 -6 4 -8 18 -6 31 5 22 1 26 -33
32 -21 4 -50 2 -66 -4 -16 -6 -28 -6 -28 -1 0 5 4 9 9 9 5 0 11 10 14 21 5 18
10 20 34 14 15 -5 37 -8 48 -9z m-2270 -6 c-3 -5 -12 -10 -18 -10 -7 0 -6 4 3
10 19 12 23 12 15 0z m1683 -35 c-12 -27 -24 -32 -30 -14 -2 7 -9 5 -17 -5
-11 -13 -11 -16 1 -16 7 0 22 -15 33 -32 10 -18 23 -36 29 -40 16 -11 -6 -10
-23 1 -17 11 -43 3 -35 -10 3 -5 11 -6 17 -2 7 4 6 -1 -2 -10 -13 -16 -14 -16
-28 0 -8 10 -12 12 -8 6 8 -17 -7 -16 -31 2 -18 14 -18 14 5 15 19 0 21 3 12
14 -14 17 2 31 25 22 10 -4 14 -1 11 6 -2 7 -10 14 -18 14 -8 1 -18 2 -23 3
-5 0 -4 7 2 14 6 6 12 17 14 22 1 6 7 9 12 7 5 -2 6 4 2 13 -3 9 -2 13 4 10 5
-3 18 -2 27 4 25 14 34 4 21 -24z m322 19 c8 -8 9 -14 4 -12 -5 2 -10 -1 -11
-6 -4 -23 -43 -28 -43 -5 0 6 5 7 12 3 7 -4 8 -3 4 4 -8 13 0 32 13 32 5 0 14
-7 21 -16z m350 0 c0 -8 -5 -12 -10 -9 -6 4 -8 11 -5 16 9 14 15 11 15 -7z
m-2017 -16 c3 -10 -31 -13 -147 -15 -84 -1 -164 -4 -178 -7 -17 -3 -28 1 -32
9 -6 16 33 20 225 23 94 2 128 -1 132 -10z m1903 -34 c3 -22 2 -25 -6 -14 -10
15 -14 58 -5 48 3 -3 8 -18 11 -34z m164 26 c0 -5 -2 -10 -4 -10 -3 0 -8 5
-11 10 -3 6 -1 10 4 10 6 0 11 -4 11 -10z m-2435 -10 c7 -12 -2 -12 -30 0 -19
8 -19 9 2 9 12 1 25 -3 28 -9z m2305 -22 c0 -36 -10 -32 -14 6 -2 14 1 26 5
26 5 0 9 -14 9 -32z m-102 -8 c11 0 24 -5 27 -10 4 -6 11 -8 16 -5 5 4 9 -1 9
-10 0 -8 10 -20 23 -25 20 -8 20 -9 -7 -7 -18 1 -34 10 -44 25 -9 14 -18 19
-22 13 -4 -7 -18 2 -36 21 -16 18 -20 25 -8 15 11 -9 30 -17 42 -17z m-1821 6
c-5 -14 -97 -17 -97 -3 0 8 -4 7 -12 -1 -8 -8 -49 -12 -117 -12 -64 0 -101 4
-95 9 14 15 58 18 196 17 76 -1 127 -5 125 -10z m1233 10 c0 -3 -4 -8 -10 -11
-5 -3 -10 -1 -10 4 0 6 5 11 10 11 6 0 10 -2 10 -4z m-1570 -22 c0 -12 -8 -15
-37 -11 -21 3 -43 1 -50 -5 -9 -7 -13 -7 -13 1 0 6 10 13 23 15 49 11 62 14
70 15 4 0 7 -6 7 -15z m2065 9 c-31 -8 -42 -23 -17 -23 12 0 22 -4 22 -9 0 -4
-11 -6 -25 -3 -14 2 -25 7 -25 11 0 14 25 31 45 30 20 -1 20 -1 0 -6z m253
-21 c-11 -13 -10 -15 5 -9 9 3 17 3 17 -2 0 -13 -22 -27 -50 -34 -24 -6 -24
-5 -5 9 11 8 20 20 21 27 3 34 5 38 14 32 8 -5 7 -12 -2 -23z m-1005 1 c-7 -2
-21 -2 -30 0 -10 3 -4 5 12 5 17 0 24 -2 18 -5z m-933 -12 l45 -7 -32 -8 c-18
-4 -45 -7 -60 -6 -62 4 -196 0 -190 -6 4 -4 66 -9 139 -11 164 -5 157 -4 151
-19 -4 -10 -30 -12 -114 -8 -68 4 -109 2 -109 -4 0 -5 24 -10 53 -10 84 0 176
-8 184 -15 3 -4 3 -10 -1 -14 -4 -4 -11 -1 -16 7 -6 8 -10 10 -10 4 0 -8 -68
-11 -220 -11 -121 0 -220 3 -220 7 0 9 76 20 133 20 22 0 37 3 33 7 -3 4 -50
6 -104 4 -120 -2 -116 16 6 26 45 3 79 9 77 14 -3 4 -28 5 -57 3 -35 -3 -54 0
-60 8 -5 10 4 15 35 19 56 9 281 8 337 0z m1865 -1 c3 -5 1 -10 -4 -10 -6 0
-11 5 -11 10 0 6 2 10 4 10 3 0 8 -4 11 -10z m-1790 -18 c-3 -3 -11 0 -18 7
-9 10 -8 11 6 5 10 -3 15 -9 12 -12z m546 9 c-8 -5 -20 -7 -28 -4 -21 8 -15
13 15 13 20 0 23 -3 13 -9z m362 2 c-7 -2 -19 -2 -25 0 -7 3 -2 5 12 5 14 0
19 -2 13 -5z m-1369 -11 c3 -5 -8 -8 -25 -8 -16 0 -29 3 -29 8 0 4 11 8 24 8
14 0 27 -4 30 -8z m2196 -24 c19 -27 20 -30 4 -18 -22 17 -34 32 -34 43 0 13
6 8 30 -25z m-1153 2 c15 0 11 -29 -9 -60 -8 -12 -9 -12 -4 2 3 10 1 20 -4 23
-6 4 -10 18 -9 33 0 15 3 21 6 15 2 -7 11 -13 20 -13z m-63 -5 c-4 -8 -8 -15
-10 -15 -2 0 -4 7 -4 15 0 8 4 15 10 15 5 0 7 -7 4 -15z m-510 -13 c3 -5 -1
-9 -9 -9 -8 0 -12 4 -9 9 3 4 7 8 9 8 2 0 6 -4 9 -8z m41 -2 c3 -5 2 -10 -4
-10 -5 0 -13 5 -16 10 -3 6 -2 10 4 10 5 0 13 -4 16 -10z m1634 -5 c-10 -10
-22 -13 -35 -8 -16 6 -15 8 11 14 17 4 32 7 35 8 2 0 -3 -6 -11 -14z m-2236
-10 c-3 -9 -8 -14 -10 -11 -3 3 -2 9 2 15 9 16 15 13 8 -4z m1107 -21 c0 -27
12 -31 30 -9 11 14 50 22 50 10 0 -2 -11 -15 -25 -29 -24 -24 -34 -66 -17 -66
5 0 17 9 27 20 20 22 45 27 45 9 0 -7 9 -9 21 -6 16 4 23 0 27 -16 3 -12 4
-24 3 -26 -1 -2 13 -13 31 -24 26 -16 29 -22 16 -25 -24 -5 -22 -18 5 -37 20
-15 21 -17 5 -29 -16 -12 -19 -38 -6 -52 4 -3 4 -12 1 -20 -3 -8 0 -14 6 -14
6 0 8 -7 5 -15 -4 -8 -11 -15 -16 -15 -5 0 -8 6 -5 13 2 6 -4 27 -15 44 -11
18 -17 37 -13 43 4 6 -1 7 -11 3 -13 -5 -15 -2 -9 16 12 40 -3 77 -41 95 -35
16 -60 14 -49 -5 4 -5 1 -9 -4 -9 -6 0 -11 9 -11 20 0 13 -7 20 -20 20 -13 0
-18 5 -14 15 4 8 1 15 -5 15 -6 0 -11 7 -11 15 0 8 -6 15 -13 15 -13 0 -22 54
-12 71 10 15 25 0 25 -27z m1525 -31 c42 -38 91 -78 108 -90 35 -26 78 -65
184 -171 74 -73 88 -105 32 -77 -16 9 -29 12 -29 8 0 -4 -5 -2 -11 4 -8 8 -20
8 -36 2 -20 -8 -29 -4 -54 23 -16 18 -29 36 -29 40 0 5 -11 8 -25 8 -23 0 -27
7 -24 37 0 4 -7 10 -16 13 -9 3 -16 9 -15 13 1 11 -27 37 -40 37 -18 0 -104
93 -106 115 -2 22 -11 51 -25 77 -25 47 -2 37 86 -39z m-2041 29 c2 -4 -4 -8
-15 -8 -10 0 -19 4 -19 8 0 4 6 8 14 8 8 0 17 -4 20 -8z m2246 -12 c0 -5 -4
-10 -10 -10 -5 0 -10 5 -10 10 0 6 5 10 10 10 6 0 10 -4 10 -10z m-1630 -5 c0
-2 -10 -9 -22 -15 -22 -11 -22 -10 -4 4 21 17 26 19 26 11z m-756 -17 c-6 -10
-4 -10 9 1 10 8 20 11 24 7 3 -3 0 -6 -7 -6 -7 0 -10 -3 -7 -6 4 -4 12 -2 19
3 8 6 32 8 58 4 85 -13 11 -20 -214 -20 -121 0 -224 3 -230 7 -16 10 49 17
213 20 118 3 142 2 135 -10z m1839 5 c-7 -2 -19 -2 -25 0 -7 3 -2 5 12 5 14 0
19 -2 13 -5z m527 -19 c0 -2 -12 -4 -26 -4 -14 0 -23 4 -20 9 6 8 46 4 46 -5z
m-2730 -4 c0 -5 -4 -10 -10 -10 -5 0 -10 5 -10 10 0 6 5 10 10 10 6 0 10 -4
10 -10z m-63 -6 c-3 -3 -12 -4 -19 -1 -8 3 -5 6 6 6 11 1 17 -2 13 -5z m513
-17 c8 -1 21 -7 29 -11 10 -7 12 -6 6 4 -5 9 -4 11 3 6 22 -13 12 -26 -20 -26
-17 0 -29 -2 -27 -4 4 -4 72 -15 97 -16 17 0 15 -17 -4 -24 -8 -3 -13 -2 -11
2 3 4 -62 8 -144 9 -82 2 -149 -1 -149 -5 0 -4 38 -8 85 -9 70 -1 181 -9 230
-18 6 -1 25 -3 43 -3 22 -1 32 -6 30 -14 -3 -7 -10 -14 -16 -14 -7 -1 -17 -2
-23 -3 -5 0 -7 -5 -4 -11 3 -5 1 -10 -4 -10 -14 0 -14 13 -2 25 13 13 -149 13
-168 1 -10 -6 -12 -5 -7 2 8 13 -144 20 -269 12 -44 -3 -81 -2 -83 2 -2 5 -8
8 -13 8 -6 0 -7 -5 -4 -11 5 -7 -3 -9 -21 -7 -29 3 -47 28 -20 28 9 0 16 -6
16 -12 0 -9 3 -10 8 -2 11 17 53 24 75 12 14 -7 17 -7 13 1 -5 8 13 11 58 11
36 0 66 4 66 9 0 5 -46 7 -104 5 -67 -3 -107 -1 -111 6 -4 6 5 10 22 10 15 0
69 4 118 8 50 5 134 7 188 6 60 -2 97 1 97 7 0 6 -62 10 -167 9 -93 0 -172 0
-178 1 -5 1 -13 1 -17 0 -5 0 -8 3 -8 8 0 6 15 11 33 13 34 4 332 0 357 -5z
m-408 -4 c-6 -2 -10 -9 -6 -14 3 -5 1 -9 -5 -9 -5 0 -12 4 -15 9 -6 9 10 19
29 19 6 0 4 -2 -3 -5z m1976 -11 c2 -7 -2 -10 -11 -6 -8 3 -18 0 -22 -6 -8
-12 -35 5 -35 22 0 14 63 5 68 -10z m-1468 -4 c0 -11 -28 -10 -35 1 -3 6 4 9
15 8 11 -1 20 -5 20 -9z m2195 -8 c3 -5 1 -10 -4 -10 -6 0 -11 5 -11 10 0 6 2
10 4 10 3 0 8 -4 11 -10z m-805 -4 c0 -11 -19 -15 -25 -6 -3 5 1 10 9 10 9 0
16 -2 16 -4z m875 -10 c18 -13 18 -14 -8 -9 -15 3 -27 9 -27 14 0 13 13 11 35
-5z m-2160 -46 c-4 -6 -16 -3 -30 7 -34 25 -31 36 5 18 17 -9 28 -20 25 -25z
m-670 20 c-3 -5 -12 -10 -18 -10 -7 0 -6 4 3 10 19 12 23 12 15 0z m-21 -48
c2 -4 -6 -9 -19 -10 -13 -1 -27 3 -30 8 -3 6 5 10 19 10 14 0 27 -4 30 -8z
m376 -10 c0 -4 -28 -7 -62 -5 -44 2 -57 0 -43 -7 11 -5 15 -9 9 -9 -6 -1 -14
-15 -18 -31 -3 -17 -11 -30 -18 -29 -26 3 -38 -2 -58 -23 -24 -26 -26 -12 -6
43 12 34 12 35 -9 31 -15 -2 -22 1 -22 13 0 11 6 15 18 12 9 -3 23 -1 30 4 17
11 179 12 179 1z m193 -11 c10 -1 -1 -21 -12 -21 -4 0 -16 7 -27 15 -18 14
-18 15 6 11 14 -3 29 -5 33 -5z m-132 -16 c16 -9 37 -14 46 -13 9 2 18 -3 21
-11 3 -8 0 -11 -7 -7 -18 11 -81 -5 -81 -21 0 -8 4 -11 10 -8 5 3 7 0 4 -8
-10 -26 -32 -15 -29 15 3 20 0 28 -11 28 -8 0 -12 -5 -9 -10 11 -17 -3 -40
-20 -34 -19 8 -19 28 0 44 9 7 13 15 10 18 -3 3 -14 -3 -25 -13 -19 -18 -20
-17 -20 3 0 16 6 22 23 22 13 0 28 -5 35 -12 6 -6 15 -8 19 -4 4 4 1 11 -7 16
-26 16 8 12 41 -5z m1026 -6 c2 -16 -1 -19 -9 -11 -5 5 -7 15 -4 21 10 15 12
14 13 -10z m-1327 -4 c0 -8 -7 -15 -15 -15 -8 0 -15 7 -15 15 0 8 7 15 15 15
8 0 15 -7 15 -15z m-120 -5 c0 -5 -6 -10 -13 -10 -7 0 -18 -9 -25 -20 -11 -18
-14 -19 -27 -6 -19 19 -19 26 1 26 8 0 12 -4 9 -10 -10 -17 4 -11 25 10 22 22
30 25 30 10z m50 -6 c0 -8 -4 -12 -10 -9 -5 3 -10 10 -10 16 0 5 5 9 10 9 6 0
10 -7 10 -16z m1239 -28 c0 -11 -3 -15 -6 -8 -2 6 -12 12 -21 13 -10 0 -12 3
-5 5 7 3 9 13 6 22 -6 15 -5 15 10 3 9 -7 17 -23 16 -35z m236 28 c52 -3 55
-4 55 -12 0 -4 -27 -6 -60 -5 -36 1 -58 -2 -55 -7 4 -6 20 -10 36 -10 17 0 28
-4 25 -8 -3 -5 -19 -7 -36 -4 -18 2 -30 0 -30 -7 0 -6 7 -11 15 -11 8 0 15 -4
15 -9 0 -13 -59 11 -65 27 -2 7 -1 10 4 7 6 -3 18 8 27 24 10 17 22 27 28 23
6 -3 25 -7 41 -8z m-165 -3 c0 -5 -7 -14 -15 -21 -8 -7 -15 -20 -15 -29 0 -10
-13 -27 -30 -39 -34 -26 -38 -21 -12 16 10 15 24 39 32 55 12 25 40 38 40 18z
m-1470 -15 c0 -2 -7 -7 -16 -10 -8 -3 -12 -2 -9 4 6 10 25 14 25 6z m1510 -6
c8 -5 11 -10 6 -10 -5 0 -3 -7 4 -15 12 -15 7 -30 -10 -30 -4 0 -18 -11 -30
-25 -15 -17 -20 -19 -16 -7 3 10 0 17 -9 17 -11 0 -12 7 -4 32 12 43 31 56 59
38z m214 -11 c-10 -4 -30 -8 -43 -8 -20 -1 -22 -4 -13 -13 7 -7 12 -16 12 -22
0 -11 -29 25 -30 37 0 4 13 7 29 7 17 0 33 5 36 10 4 6 11 7 18 3 7 -4 4 -9
-9 -14z m-1584 -9 c-6 -11 -15 -20 -20 -20 -14 0 -12 27 3 33 23 10 28 7 17
-13z m-50 1 c0 -5 -7 -12 -16 -15 -14 -5 -15 -4 -4 9 14 17 20 19 20 6z m260
-39 c0 -9 -7 -8 -23 5 -17 12 -21 20 -13 29 8 8 14 7 23 -5 7 -9 13 -22 13
-29z m330 34 c0 -8 -8 -13 -17 -11 -10 2 -22 4 -28 5 -5 1 1 6 15 10 14 4 26
8 28 9 1 1 2 -5 2 -13z m242 -46 c4 0 8 -4 8 -9 0 -5 -8 -7 -18 -4 -10 2 -19
10 -19 16 0 7 -3 23 -7 37 -5 19 -2 17 11 -7 9 -18 20 -33 25 -33z m-432 14
c0 -3 -9 -2 -20 1 -24 8 -26 -2 -4 -26 19 -21 5 -32 -19 -14 -14 10 -16 18 -7
39 8 23 13 25 30 16 11 -6 20 -13 20 -16z m135 -5 c-3 -5 0 -6 8 -3 8 3 18 0
23 -7 4 -7 3 -14 -4 -17 -6 -2 -8 -10 -6 -17 3 -8 -3 -23 -14 -35 l-19 -20 2
29 c2 27 0 29 -18 19 -22 -11 -21 -9 5 44 7 14 16 24 20 21 5 -2 6 -9 3 -14z
m-516 -34 c-14 -14 -16 -13 -16 15 0 28 2 29 16 15 14 -13 14 -17 0 -30z m201
30 c11 -13 10 -14 -4 -9 -9 3 -16 10 -16 15 0 13 6 11 20 -6z m-46 -37 c3 -16
2 -28 -3 -28 -11 0 -22 40 -15 52 8 12 10 9 18 -24z m1289 25 c-7 -2 -19 -2
-25 0 -7 3 -2 5 12 5 14 0 19 -2 13 -5z m67 3 c0 -2 -9 -6 -20 -9 -11 -3 -18
-1 -14 4 5 9 34 13 34 5z m-779 -38 c11 -21 11 -22 -4 -9 -10 7 -17 17 -17 22
0 15 9 10 21 -13z m659 12 c0 -5 -5 -10 -11 -10 -5 0 -7 5 -4 10 3 6 8 10 11
10 2 0 4 -4 4 -10z m-1407 -27 c-7 -2 -19 -2 -25 0 -7 3 -2 5 12 5 14 0 19 -2
13 -5z m107 -46 c0 -5 -4 -5 -10 -2 -5 3 -10 14 -10 23 0 15 2 15 10 2 5 -8
10 -19 10 -23z m654 12 c-3 -5 -12 -9 -20 -9 -8 0 -14 -6 -14 -14 0 -24 -21
-30 -27 -7 -3 12 -10 21 -16 21 -20 0 7 18 33 22 31 5 52 -1 44 -13z m-721 -4
c-3 -9 -8 -14 -10 -11 -3 3 -2 9 2 15 9 16 15 13 8 -4z m332 6 c-3 -5 -1 -12
5 -16 13 -8 13 -18 -2 -38 -11 -15 -13 -13 -12 15 1 41 3 48 10 48 3 0 3 -4
-1 -9z m565 -83 c0 -5 -12 5 -27 24 -46 56 -50 65 -10 24 20 -22 37 -43 37
-48z m35 72 c-6 -10 8 -15 30 -11 6 1 2 -5 -7 -15 -14 -14 -20 -15 -32 -4 -21
16 -20 40 0 40 8 0 12 -4 9 -10z m-180 -10 c3 -5 -1 -10 -9 -10 -18 0 -48 -42
-44 -60 2 -7 -6 -13 -17 -14 -14 -2 -21 4 -21 15 0 14 3 16 15 6 11 -10 13 -9
9 3 -3 8 6 27 20 43 28 29 37 33 47 17z m-235 -20 c7 -14 7 -20 0 -20 -5 0
-10 5 -10 11 0 6 -7 9 -15 5 -9 -3 -15 0 -15 9 0 22 28 18 40 -5z m-135 0 c3
-5 -1 -10 -10 -10 -9 0 -13 5 -10 10 3 6 8 10 10 10 2 0 7 -4 10 -10z m444
-26 c15 -24 18 -40 12 -51 -7 -14 -11 -12 -24 13 -37 73 -27 105 12 38z m-814
-13 c2 -17 0 -31 -4 -31 -10 0 -20 57 -13 65 8 8 13 -1 17 -34z m755 -3 c-28
-10 -25 -26 4 -23 18 2 30 -6 49 -36 14 -21 21 -39 14 -39 -8 0 -8 -3 1 -12
17 -17 15 -33 -3 -18 -15 12 -22 0 -7 -14 4 -4 7 -18 7 -29 0 -15 6 -22 18
-21 14 2 15 -1 7 -11 -12 -14 6 -55 23 -55 10 0 57 -50 57 -61 0 -5 -9 -9 -20
-9 -12 0 -20 -7 -20 -16 0 -14 -3 -14 -15 -4 -9 7 -13 21 -10 30 3 11 -1 20
-11 24 -12 5 -14 9 -5 20 8 10 6 17 -9 31 -11 10 -23 36 -26 57 -4 24 -12 38
-21 38 -17 0 -12 -21 18 -87 10 -24 19 -48 18 -55 0 -7 -9 6 -19 30 -11 23
-24 42 -30 42 -13 0 -13 -17 0 -25 6 -3 10 -14 10 -23 0 -22 -14 -7 -45 51
-24 46 -25 67 -5 67 5 0 10 -10 13 -22 3 -20 5 -21 11 -6 5 11 1 26 -11 42
-20 29 -38 29 -39 0 -2 -37 -4 -37 -34 -9 -16 15 -26 33 -23 38 4 7 -1 8 -12
3 -15 -5 -16 -4 -5 9 10 12 10 18 0 30 -8 9 -8 15 -2 15 6 0 18 3 26 6 12 5
15 2 10 -10 -4 -11 0 -16 14 -16 15 0 19 6 17 25 -2 15 4 29 13 36 16 10 15
10 0 5 -10 -3 -18 -1 -18 4 0 5 11 12 25 16 14 3 25 11 25 18 0 6 7 2 16 -9
13 -18 13 -20 -6 -27z m254 9 c6 -5 0 -7 -16 -4 -15 2 -29 -1 -31 -7 -2 -6 -8
-8 -12 -4 -4 4 3 16 16 27 16 13 25 16 28 8 2 -7 9 -16 15 -20z m-784 -24 c0
-21 -3 -24 -9 -14 -5 8 -7 20 -4 28 8 21 13 15 13 -14z m300 12 c0 -8 -4 -15
-10 -15 -5 0 -10 -7 -10 -17 0 -22 -6 -14 -14 20 -5 23 -3 27 14 27 11 0 20
-7 20 -15z m505 -52 c1 -26 -2 -30 -13 -21 -7 7 -11 20 -9 29 3 12 -2 19 -17
23 -13 2 -9 4 9 3 26 -2 29 -6 30 -34z m-1265 -1 c0 -15 -2 -15 -10 -2 -13 20
-13 33 0 25 6 -3 10 -14 10 -23z m800 18 c0 -5 -7 -10 -15 -10 -8 0 -15 5 -15
10 0 6 7 10 15 10 8 0 15 -4 15 -10z m-204 -22 c5 -7 2 -9 -9 -5 -9 3 -17 1
-20 -6 -2 -6 -6 -4 -10 6 -5 12 -1 17 13 17 10 0 22 -5 26 -12z m494 8 c0 -3
-4 -8 -10 -11 -5 -3 -10 -1 -10 4 0 6 5 11 10 11 6 0 10 -2 10 -4z m83 -37
c-8 -8 -14 -6 -22 9 -13 25 -2 37 18 17 11 -11 12 -18 4 -26z m-808 -7 c-1 -1
-10 0 -19 4 -13 5 -14 9 -4 21 10 13 13 13 19 -4 3 -10 5 -19 4 -21z m445 24
c0 -20 -13 -27 -30 -15 -13 8 -13 10 0 19 21 14 30 12 30 -4z m-780 -42 c0 -8
-9 -14 -20 -14 -11 0 -20 5 -20 11 0 5 5 7 10 4 6 -3 10 1 10 10 0 9 5 13 10
10 6 -3 10 -13 10 -21z m550 4 c0 -18 -2 -20 -9 -8 -6 8 -7 18 -5 22 9 14 14
9 14 -14z m630 -27 c-1 -13 -3 -13 -15 3 -19 26 -19 42 0 26 8 -7 15 -20 15
-29z m-506 20 c3 -5 -3 -11 -14 -14 -15 -4 -19 -12 -16 -29 3 -18 9 -23 31
-21 22 2 25 0 15 -13 -10 -11 -9 -14 8 -14 15 0 20 -5 16 -14 -16 -41 -84 0
-84 50 0 44 29 80 44 55z m80 -13 c5 -10 7 -10 12 0 6 14 24 17 24 4 0 -5 -9
-19 -20 -32 -11 -13 -20 -19 -20 -15 0 5 -5 4 -12 -3 -18 -18 -28 -15 -28 8 0
20 18 49 32 50 3 0 9 -6 12 -12z m353 -2 c-3 -8 -1 -17 6 -19 7 -2 9 -8 4 -12
-4 -5 -14 0 -21 11 -11 14 -11 21 -3 26 17 11 20 10 14 -6z m-521 -43 c-4 -4
-11 -1 -16 7 -16 25 -11 35 7 17 9 -9 13 -20 9 -24z m498 -9 c3 -8 2 -12 -4
-9 -6 3 -10 10 -10 16 0 14 7 11 14 -7z m-163 -16 c11 -21 11 -22 -4 -9 -10 7
-17 17 -17 22 0 15 9 10 21 -13z m209 12 c0 -5 -2 -10 -4 -10 -3 0 -8 5 -11
10 -3 6 -1 10 4 10 6 0 11 -4 11 -10z m-530 -9 c0 -6 -4 -12 -9 -15 -5 -3 -7
-15 -4 -27 4 -15 8 -17 14 -8 6 10 13 2 24 -25 9 -21 14 -43 12 -49 -3 -7 -10
2 -17 18 -9 21 -14 25 -18 15 -3 -8 -15 -22 -26 -32 -20 -17 -20 -18 -1 -12
16 6 18 4 8 -6 -22 -24 -40 -19 -57 18 -14 27 -14 33 -3 24 12 -10 16 -8 20 9
4 16 11 19 26 14 20 -6 20 -5 5 31 -13 30 -13 38 -2 45 17 11 28 11 28 0z
m560 -26 c0 -8 8 -19 18 -24 15 -9 15 -10 -5 -11 -23 0 -48 33 -38 50 8 13 25
3 25 -15z m2552 8 c18 -10 35 -21 36 -25 2 -5 15 -8 28 -8 14 0 27 -7 30 -15
4 -8 12 -15 20 -15 8 0 14 -4 14 -10 0 -5 7 -10 15 -10 8 0 15 -7 15 -15 0 -8
5 -15 10 -15 11 0 14 -33 4 -43 -3 -3 -17 -1 -30 5 -27 13 -42 5 -27 -14 15
-18 8 -66 -12 -88 -10 -11 -14 -23 -11 -28 3 -5 -1 -15 -9 -22 -9 -7 -15 -20
-13 -29 1 -9 -6 -25 -17 -36 -11 -11 -29 -33 -40 -48 -15 -20 -26 -26 -39 -21
-27 10 -15 77 34 189 20 48 19 53 -21 80 -21 15 -39 34 -39 43 0 10 4 12 13 5
22 -18 55 -21 76 -7 10 8 26 11 34 8 8 -3 18 0 22 6 3 6 1 9 -6 8 -7 -2 -15 6
-17 17 -6 28 -14 35 -45 37 -15 1 -27 8 -27 16 0 9 -7 12 -20 9 -20 -5 -46 24
-33 37 10 9 18 8 55 -11z m-3684 -148 c0 -16 -2 -15 -8 5 -4 14 -8 34 -8 45 0
16 2 15 8 -5 4 -14 8 -34 8 -45z m1352 40 c0 -8 -2 -15 -4 -15 -2 0 -6 7 -10
15 -3 8 -1 15 4 15 6 0 10 -7 10 -15z m-725 -52 c3 -18 3 -48 0 -67 -4 -20 -2
-36 4 -40 7 -5 11 3 12 21 1 23 3 21 9 -12 5 -22 15 -53 24 -70 17 -32 23 -92
7 -66 -5 7 -13 11 -19 7 -13 -8 -67 138 -57 154 3 4 -2 23 -10 41 l-15 34 1
-50 c1 -77 0 -83 -15 -56 -8 14 -12 31 -9 38 4 9 0 11 -12 6 -16 -6 -17 -2
-11 27 3 19 13 41 21 50 8 9 15 21 15 27 0 8 7 8 24 0 16 -8 27 -23 31 -44z
m25 27 c6 -11 8 -20 6 -20 -3 0 -10 9 -16 20 -6 11 -8 20 -6 20 3 0 10 -9 16
-20z m470 -22 c0 -5 -7 -8 -16 -8 -8 0 -12 -4 -9 -10 3 -6 -1 -7 -9 -4 -20 8
-20 13 1 36 13 14 18 16 25 6 4 -7 8 -16 8 -20z m-450 -43 c14 -19 14 -19 -2
-6 -10 7 -18 18 -18 24 0 6 1 8 3 6 1 -2 9 -13 17 -24z m75 -55 c3 -6 -1 -7
-9 -4 -18 7 -21 14 -7 14 6 0 13 -4 16 -10z m455 -31 c0 -6 -4 -7 -10 -4 -5 3
-10 11 -10 16 0 6 5 7 10 4 6 -3 10 -11 10 -16z m-1115 -107 c-3 -3 -11 0 -18
7 -9 10 -8 11 6 5 10 -3 15 -9 12 -12z m35 -74 c0 -6 -6 -5 -15 2 -8 7 -15 14
-15 16 0 2 7 1 15 -2 8 -4 15 -11 15 -16z m691 -15 c12 -15 12 -16 -3 -10 -9
3 -18 1 -20 -5 -2 -6 -10 -8 -16 -4 -17 10 -15 26 3 20 8 -4 15 -1 15 5 0 15
5 14 21 -6z m9 -32 c0 -6 -4 -13 -10 -16 -5 -3 -10 1 -10 9 0 9 5 16 10 16 6
0 10 -4 10 -9z m62 -26 c12 -28 13 -33 2 -24 -11 9 -14 8 -15 -2 0 -8 -4 -5
-8 6 -5 12 -4 23 3 27 8 6 7 8 -1 8 -7 0 -13 5 -13 10 0 21 17 8 32 -25z
m2691 18 c-6 -15 -4 -16 9 -5 13 10 19 10 32 -3 21 -21 20 -26 -9 -53 -14 -14
-30 -20 -36 -16 -7 4 -4 -5 7 -19 24 -34 45 -42 56 -22 11 19 83 57 92 48 14
-15 4 -42 -34 -83 -28 -32 -40 -40 -40 -27 0 9 -4 17 -10 17 -5 0 -7 -7 -3
-16 5 -13 2 -15 -18 -9 -13 4 -36 16 -50 26 -34 24 -99 96 -99 110 0 5 -4 8
-9 4 -5 -3 -12 -1 -16 5 -11 17 38 11 73 -10 31 -19 32 -19 32 -1 0 22 17 71
24 71 3 0 2 -8 -1 -17z m-2593 -35 c0 -12 -6 -9 -26 13 -19 22 -19 22 4 8 12
-8 22 -17 22 -21z m2346 -24 c-3 -7 1 -15 8 -17 19 -7 26 -55 11 -67 -7 -6
-27 -15 -43 -20 -28 -8 -35 -4 -87 46 -55 54 -56 54 -38 78 15 19 24 23 54 19
22 -3 39 -1 44 7 9 15 58 -29 51 -46z"/>
<path d="M4220 3910 c8 -5 20 -10 25 -10 6 0 3 5 -5 10 -8 5 -19 10 -25 10 -5
0 -3 -5 5 -10z"/>
<path d="M4156 3902 c15 -14 84 -54 84 -49 0 6 -78 57 -87 57 -4 0 -3 -4 3 -8z"/>
<path d="M3678 3719 c-12 -7 -18 -32 -23 -108 -7 -93 -5 -102 14 -130 31 -43
87 -59 144 -41 52 17 57 24 50 69 -13 93 -50 175 -93 208 -28 21 -22 4 14 -40
27 -33 36 -53 36 -82 l0 -37 -47 62 c-27 34 -55 72 -63 85 -12 17 -20 21 -32
14z m26 -137 c2 -4 -2 -16 -10 -27 -13 -18 -14 -18 -14 8 0 25 13 36 24 19z
m26 -32 c0 -5 -5 -10 -11 -10 -5 0 -7 5 -4 10 3 6 8 10 11 10 2 0 4 -4 4 -10z"/>
<path d="M3519 3183 c-13 -16 -12 -17 4 -4 16 13 21 21 13 21 -2 0 -10 -8 -17
-17z"/>
<path d="M2950 2853 c0 -5 13 -14 29 -20 24 -9 29 -8 24 3 -3 8 -9 14 -13 14
-5 0 -15 3 -24 6 -9 3 -16 2 -16 -3z"/>
<path d="M2950 2800 c0 -5 9 -10 20 -10 11 0 20 5 20 10 0 6 -9 10 -20 10 -11
0 -20 -4 -20 -10z"/>
<path d="M2871 2759 c14 -14 19 -29 16 -47 -7 -34 1 -52 22 -52 14 0 17 7 13
30 -2 17 -8 30 -12 30 -4 0 -8 6 -7 13 1 38 -4 47 -28 47 l-25 0 21 -21z"/>
<path d="M3038 2763 c12 -2 30 -2 40 0 9 3 -1 5 -23 4 -22 0 -30 -2 -17 -4z"/>
<path d="M2823 2753 c-7 -3 -13 -11 -13 -19 0 -8 6 -13 13 -11 6 1 11 -4 9
-11 -3 -15 20 -11 25 4 5 15 -20 42 -34 37z"/>
<path d="M3056 2741 c-3 -5 1 -11 9 -15 8 -3 15 -1 15 4 0 13 -18 22 -24 11z"/>
<path d="M3093 2721 c-7 -10 -9 -22 -6 -25 6 -6 32 23 33 37 0 14 -15 7 -27
-12z"/>
<path d="M3117 2714 c-7 -8 15 -44 27 -44 4 0 3 7 -4 15 -6 8 -9 19 -5 25 7
11 -7 14 -18 4z"/>
<path d="M2980 2690 c0 -5 5 -10 10 -10 6 0 10 5 10 10 0 6 -4 10 -10 10 -5 0
-10 -4 -10 -10z"/>
<path d="M2945 2653 c-16 -13 -17 -15 -2 -10 11 4 17 1 17 -8 0 -7 5 -17 11
-21 6 -4 9 1 8 12 -2 11 0 25 4 32 12 17 -14 15 -38 -5z"/>
<path d="M2862 2621 c-13 -12 -22 -24 -20 -26 6 -6 50 35 46 42 -1 5 -13 -3
-26 -16z"/>
<path d="M3120 2635 c-7 -8 -17 -12 -24 -8 -6 3 -1 -4 11 -15 13 -13 29 -19
37 -16 18 7 21 24 5 24 -6 0 -9 7 -5 15 7 19 -8 19 -24 0z m20 -26 c0 -6 -4
-7 -10 -4 -5 3 -10 11 -10 16 0 6 5 7 10 4 6 -3 10 -11 10 -16z"/>
<path d="M3189 2616 c14 -14 26 -24 29 -22 7 8 -8 25 -31 37 -21 11 -21 10 2
-15z"/>
<path d="M3057 2588 c-8 -28 -2 -34 16 -19 8 6 22 9 31 5 12 -5 15 -2 10 10
-4 11 -13 15 -26 10 -14 -4 -18 -2 -14 5 4 6 3 11 -2 11 -5 0 -12 -10 -15 -22z"/>
<path d="M3161 2524 c0 -11 3 -14 6 -6 3 7 2 16 -1 19 -3 4 -6 -2 -5 -13z"/>
<path d="M3319 2491 c6 -10 9 -20 8 -22 -1 -2 0 -3 2 -2 2 2 10 -2 18 -9 23
-19 25 -3 2 25 -24 31 -45 37 -30 8z"/>
<path d="M3387 2453 c-4 -3 -7 -15 -7 -25 0 -10 -5 -18 -11 -18 -5 0 -7 -4 -4
-10 3 -5 1 -18 -4 -27 -10 -17 -11 -16 -9 2 2 38 -2 50 -23 63 -16 10 -24 11
-33 2 -8 -8 -7 -10 7 -5 10 4 17 2 17 -4 0 -6 -5 -11 -12 -11 -9 0 -9 -3 0
-12 10 -10 15 -10 21 0 7 11 9 10 14 -2 4 -9 3 -16 -2 -16 -4 0 -8 -13 -8 -30
0 -16 4 -30 9 -30 5 0 6 5 3 11 -4 6 0 9 11 7 13 -2 20 6 26 37 5 21 14 43 21
47 9 6 9 8 -1 8 -7 0 -10 5 -7 10 7 11 2 13 -8 3z"/>
<path d="M3230 2369 c-25 -22 -36 -36 -25 -30 28 14 92 70 80 70 -5 0 -30 -18
-55 -40z"/>
<path d="M3310 2370 c0 -5 5 -10 11 -10 5 0 7 5 4 10 -3 6 -8 10 -11 10 -2 0
-4 -4 -4 -10z"/>
<path d="M3394 2365 c-3 -8 -4 -20 -1 -27 4 -8 6 -6 6 5 1 9 6 17 11 17 6 0
10 5 10 10 0 15 -20 12 -26 -5z"/>
<path d="M3431 2365 c0 -5 6 -18 13 -28 12 -15 14 -16 20 -2 3 9 0 15 -8 15
-8 0 -17 6 -19 13 -3 6 -6 8 -6 2z"/>
<path d="M2810 2309 c7 -11 14 -19 16 -16 7 7 -7 37 -17 37 -6 0 -5 -9 1 -21z"/>
<path d="M3518 2308 c9 -9 15 -9 24 0 9 9 7 12 -12 12 -19 0 -21 -3 -12 -12z"/>
<path d="M3315 2296 c-11 -8 -14 -15 -8 -19 6 -4 16 0 23 8 17 21 8 28 -15 11z"/>
<path d="M3420 2289 c0 -11 4 -18 10 -14 5 3 7 12 3 20 -7 21 -13 19 -13 -6z"/>
<path d="M3041 2284 c0 -11 3 -14 6 -6 3 7 2 16 -1 19 -3 4 -6 -2 -5 -13z"/>
<path d="M3432 2233 c-1 -22 0 -24 8 -13 12 18 13 40 2 40 -4 0 -9 -12 -10
-27z"/>
<path d="M2967 2196 c-4 -10 1 -12 14 -9 23 6 24 9 5 16 -8 3 -17 0 -19 -7z"/>
<path d="M2917 2163 c-13 -13 -7 -21 13 -16 11 3 17 9 14 14 -6 11 -18 12 -27
2z"/>
<path d="M3734 1992 c-14 -9 -24 -62 -13 -62 5 0 9 9 9 20 0 11 7 23 15 26 8
4 15 10 15 15 0 11 -11 11 -26 1z"/>
<path d="M3813 1935 c-6 -15 -7 -22 -1 -19 6 4 14 0 19 -7 6 -10 9 -4 9 19 0
38 -11 41 -27 7z"/>
<path d="M3920 1940 c0 -5 5 -10 11 -10 5 0 7 5 4 10 -3 6 -8 10 -11 10 -2 0
-4 -4 -4 -10z"/>
<path d="M3695 1910 c-3 -5 -1 -10 4 -10 6 0 11 5 11 10 0 6 -2 10 -4 10 -3 0
-8 -4 -11 -10z"/>
<path d="M3735 1899 c-5 -14 -1 -27 10 -38 12 -11 15 -11 10 -2 -6 11 -4 13 8
8 13 -5 14 -2 5 24 -12 34 -24 37 -33 8z"/>
<path d="M3817 1843 c-4 -3 -7 -11 -7 -17 0 -6 5 -5 12 2 6 6 9 14 7 17 -3 3
-9 2 -12 -2z"/>
<path d="M3647 1812 c-21 -23 -21 -36 0 -53 15 -13 15 -12 4 9 -10 18 -9 22 4
22 8 0 15 2 15 4 0 2 3 11 6 20 8 22 -9 20 -29 -2z"/>
<path d="M3620 1710 c0 -5 5 -10 10 -10 6 0 10 5 10 10 0 6 -4 10 -10 10 -5 0
-10 -4 -10 -10z"/>
<path d="M3581 1664 c0 -11 3 -14 6 -6 3 7 2 16 -1 19 -3 4 -6 -2 -5 -13z"/>
<path d="M3662 1656 c7 -8 15 -12 17 -11 5 6 -10 25 -20 25 -5 0 -4 -6 3 -14z"/>
<path d="M3588 1623 c7 -3 16 -2 19 1 4 3 -2 6 -13 5 -11 0 -14 -3 -6 -6z"/>
<path d="M3580 1590 c0 -5 7 -10 16 -10 8 0 12 5 9 10 -3 6 -10 10 -16 10 -5
0 -9 -4 -9 -10z"/>
<path d="M3770 1500 c0 -5 5 -10 11 -10 5 0 7 5 4 10 -3 6 -8 10 -11 10 -2 0
-4 -4 -4 -10z"/>
<path d="M3840 1503 c0 -14 19 -38 25 -32 8 8 -5 39 -16 39 -5 0 -9 -3 -9 -7z"/>
<path d="M3640 1491 c0 -5 5 -13 10 -16 6 -3 10 -2 10 4 0 5 -4 13 -10 16 -5
3 -10 2 -10 -4z"/>
<path d="M3758 1473 c7 -3 16 -2 19 1 4 3 -2 6 -13 5 -11 0 -14 -3 -6 -6z"/>
<path d="M3235 2880 c3 -5 8 -10 11 -10 2 0 4 5 4 10 0 6 -5 10 -11 10 -5 0
-7 -4 -4 -10z"/>
<path d="M2487 2469 c7 -7 15 -10 18 -7 3 3 -2 9 -12 12 -14 6 -15 5 -6 -5z"/>
<path d="M2531 2471 c-9 -6 -11 -16 -7 -27 7 -18 8 -18 17 -1 14 23 8 39 -10
28z"/>
<path d="M2440 2435 c14 -8 19 -14 13 -15 -22 0 -14 -20 7 -20 11 0 20 -7 20
-15 0 -8 5 -15 10 -15 16 0 12 10 -16 47 -14 18 -33 33 -42 33 -12 -1 -10 -5
8 -15z"/>
<path d="M2240 2420 c0 -21 16 -44 23 -33 4 6 0 19 -8 29 -11 15 -14 16 -15 4z"/>
<path d="M2415 2420 c3 -5 8 -10 11 -10 2 0 4 5 4 10 0 6 -5 10 -11 10 -5 0
-7 -4 -4 -10z"/>
<path d="M2560 2315 c7 -9 15 -13 17 -11 7 7 -7 26 -19 26 -6 0 -6 -6 2 -15z"/>
<path d="M2477 2294 c-3 -4 4 -15 16 -24 15 -13 24 -15 29 -7 13 21 -27 49
-45 31z"/>
<path d="M2306 2225 c4 -8 8 -15 10 -15 2 0 4 7 4 15 0 8 -4 15 -10 15 -5 0
-7 -7 -4 -15z"/>
<path d="M2560 2225 c7 -9 15 -13 17 -11 7 7 -7 26 -19 26 -6 0 -6 -6 2 -15z"/>
<path d="M2421 2158 c13 -13 26 -19 28 -14 4 10 -27 36 -42 36 -6 0 1 -10 14
-22z"/>
<path d="M2631 2124 c-9 -10 -22 -14 -40 -10 -23 6 -24 5 -8 -7 9 -8 17 -19
17 -26 0 -14 17 -14 26 0 3 6 19 9 34 7 l28 -4 -21 28 c-11 15 -21 28 -21 28
-1 -1 -7 -8 -15 -16z"/>
<path d="M2627 2056 c-4 -10 -1 -13 8 -9 8 3 12 9 9 14 -7 12 -11 11 -17 -5z"/>
<path d="M2500 1990 c0 -5 5 -10 11 -10 5 0 7 5 4 10 -3 6 -8 10 -11 10 -2 0
-4 -4 -4 -10z"/>
<path d="M2730 1970 c0 -15 21 -23 32 -12 6 6 2 11 -11 15 -12 3 -21 1 -21 -3z"/>
<path d="M2696 1955 c-3 -8 -1 -15 4 -15 6 0 10 7 10 15 0 8 -2 15 -4 15 -2 0
-6 -7 -10 -15z"/>
<path d="M2720 1940 c0 -5 5 -10 10 -10 6 0 10 5 10 10 0 6 -4 10 -10 10 -5 0
-10 -4 -10 -10z"/>
<path d="M2590 1901 c0 -9 30 -24 36 -18 2 1 -6 8 -16 15 -11 7 -20 8 -20 3z"/>
<path d="M3375 1710 c-3 -5 -2 -10 4 -10 5 0 13 5 16 10 3 6 2 10 -4 10 -5 0
-13 -4 -16 -10z"/>
<path d="M3410 1700 c0 -5 5 -10 10 -10 6 0 10 5 10 10 0 6 -4 10 -10 10 -5 0
-10 -4 -10 -10z"/>
<path d="M1927 2263 c-4 -3 -7 -11 -7 -17 0 -6 5 -5 12 2 6 6 9 14 7 17 -3 3
-9 2 -12 -2z"/>
<path d="M1968 2052 c-21 -8 -38 -20 -38 -25 0 -8 4 -7 11 0 6 6 18 9 25 6 12
-4 52 24 43 31 -2 1 -21 -4 -41 -12z"/>
<path d="M2225 2000 c-3 -5 -1 -10 4 -10 6 0 11 5 11 10 0 6 -2 10 -4 10 -3 0
-8 -4 -11 -10z"/>
<path d="M2145 1990 c-3 -5 1 -10 11 -10 9 0 23 -8 31 -17 14 -17 14 -17 9 0
-3 10 -6 23 -6 28 0 12 -37 12 -45 -1z"/>
<path d="M2230 1976 c0 -2 7 -9 15 -16 9 -7 15 -8 15 -2 0 5 -7 12 -15 16 -8
3 -15 4 -15 2z"/>
<path d="M2005 1510 c-3 -5 3 -10 15 -10 12 0 18 5 15 10 -3 6 -10 10 -15 10
-5 0 -12 -4 -15 -10z"/>
<path d="M4600 1160 c0 -5 9 -10 20 -10 11 0 20 5 20 10 0 6 -9 10 -20 10 -11
0 -20 -4 -20 -10z"/>
<path d="M2006 1271 c-4 -5 3 -7 14 -4 23 6 26 13 6 13 -8 0 -17 -4 -20 -9z"/>
<path d="M1985 1229 c-11 -17 1 -21 15 -4 8 9 8 15 2 15 -6 0 -14 -5 -17 -11z"/>
<path d="M3180 1190 c0 -5 5 -10 10 -10 6 0 10 5 10 10 0 6 -4 10 -10 10 -5 0
-10 -4 -10 -10z"/>
<path d="M2554 919 c-2 -5 11 -25 30 -46 20 -21 36 -33 36 -27 0 6 -7 17 -15
24 -22 18 -19 27 11 34 15 4 23 10 19 14 -10 10 -74 11 -81 1z"/>
<path d="M2510 866 c0 -2 7 -7 16 -10 8 -3 12 -2 9 4 -6 10 -25 14 -25 6z"/>
<path d="M5511 614 c0 -11 3 -14 6 -6 3 7 2 16 -1 19 -3 4 -6 -2 -5 -13z"/>
</g>
</svg>
